<svg xmlns="http://www.w3.org/2000/svg" width="62.624" height="47.88" viewBox="0 0 62.624 47.88">
  <g id="undraw_book_lover_re_rwjy" transform="translate(-0.002)">
    <path id="Path_894" data-name="Path 894" d="M850.757,603.028l.107-2.407a7.775,7.775,0,0,1,3.626-.918c-1.741,1.424-1.524,4.168-2.7,6.083a4.676,4.676,0,0,1-3.429,2.161l-1.457.892a7.835,7.835,0,0,1,1.651-6.349,7.564,7.564,0,0,1,1.391-1.292C850.291,602.117,850.757,603.028,850.757,603.028Z" transform="translate(-792.368 -561.753)" fill="#f2f2f2"/>
    <path id="Path_895" data-name="Path 895" d="M613.291,656.008c-.742-.053-.936.094-2.059,0h-2.059l.268-4.927,3.241,1.3,16.107.4-.009.027c-.007.021-.722,2.113-.163,2.905l.023.033h-.045l-14.776.135C613.657,655.877,613.451,656.019,613.291,656.008Z" transform="translate(-577.001 -608.322)" fill="#f2f2f2"/>
    <path id="Path_896" data-name="Path 896" d="M611.024,652.917c-1.434-.1-2.919.455-4.158-.174l-.99.06,0-.008c-.008-.023-.476-3.7.47-5.132l.042-.063.033.338-.312,4.586.691-.231c1.679.79,3.675.268,5.6.261l13.075-.048a.479.479,0,0,1,.509.417v.023H611.814Q611.417,652.945,611.024,652.917Z" transform="translate(-573.899 -605.167)" fill="#ccc"/>
    <path id="Path_897" data-name="Path 897" d="M367.337,468.412l-14.714-.292-.015-.006-3.476-1.3.066-.175,3.461,1.3,14.682.292Z" transform="translate(-316.457 -422.966)" fill="#e6e6e6"/>
    <path id="Path_898" data-name="Path 898" d="M366.5,476.831l-14.714-.292-.015-.006-3.477-1.3.066-.175,3.461,1.3,14.682.292Z" transform="translate(-315.697 -430.597)" fill="#e6e6e6"/>
    <path id="Path_899" data-name="Path 899" d="M365.659,485.249l-14.714-.293-.015-.006-3.476-1.3.066-.175,3.461,1.3,14.682.292Z" transform="translate(-314.936 -438.228)" fill="#e6e6e6"/>
    <path id="Path_900" data-name="Path 900" d="M615.481,649.948a9.845,9.845,0,0,1-3.906-1.1l-1.02-.541.027-.267a.162.162,0,0,1,.172-.131h.09l13.722.2a8.042,8.042,0,0,1,2.633.478l2.99,1.085,0,.016a.547.547,0,0,1-.578.443l-13.517-.158Q615.786,649.97,615.481,649.948Z" transform="translate(-578.254 -605.445)" fill="#e6e6e6"/>
    <path id="Path_901" data-name="Path 901" d="M366.376,455.763h0l-16.455-.377-.011-.005-2.967-1.374.03-.046h.09l2.885,1.337,16.3.373.131,0Z" transform="translate(-314.469 -411.477)" fill="#ccc"/>
    <path id="Path_902" data-name="Path 902" d="M633.484,648.451l-.209,0-4.716-.07-.223,0c1.077,1.147,3.46,1.434,6.952.99Z" transform="translate(-594.37 -605.871)" fill="#ccc"/>
    <path id="Path_903" data-name="Path 903" d="M511.387,150.639l.288.669-.47,2.377-4.8-.667.038-2.9.1-.635Z" transform="translate(-459.015 -135.496)" fill="#ffb6b6"/>
    <path id="Path_904" data-name="Path 904" d="M570.966,451.409h-1.058l-.5-4.082h1.562Z" transform="translate(-516.115 -405.464)" fill="#ffb6b6"/>
    <path id="Path_905" data-name="Path 905" d="M817.87,678.51a.453.453,0,0,0,.452.452h2.013l.347-.716.135.716h.759l-.213-2.559-.345-.02-1.159-.069-.187-.012v.725l-1.607,1.11A.453.453,0,0,0,817.87,678.51Z" transform="translate(-766.167 -631.184)" fill="#2f2e41"/>
    <path id="Path_906" data-name="Path 906" d="M465.3,381.589h-1.058l-.623-6.009,1.988-.119Z" transform="translate(-420.227 -340.324)" fill="#ffb6b6"/>
    <path id="Path_907" data-name="Path 907" d="M713.352,628.51a.453.453,0,0,0,.452.452h2.013l.347-.716.135.716h.759l-.213-2.559-.308-.018-1.179-.071-.2-.012v.725l-1.607,1.11A.453.453,0,0,0,713.352,628.51Z" transform="translate(-671.43 -585.863)" fill="#2f2e41"/>
    <path id="Path_908" data-name="Path 908" d="M733.5,397.819h0l-.2-6.637a1.735,1.735,0,0,0-.023-1.64l-.029-.053.076-.35a2.231,2.231,0,0,0-.127-1.343l-.19-6.191a8.562,8.562,0,0,0-2.554-7.263l.3-2.3-5.229.119.089,2.185-1.04,3.572c-.547,5.331-4.229,8.681-3.67,13.779a.1.1,0,0,1-.006.043,1.3,1.3,0,0,0,.105,1.05.4.4,0,0,1,.047.13c.115.894.13-.237.283.649l-.03.015a.251.251,0,0,0-.1.331c.05.146.178.234.285.2l2.8.03a.251.251,0,0,0,.1-.331c-.05-.146-.178-.234-.285-.2l-.174.088.291-.952.1-.1a.443.443,0,0,0-.056-.693h0l.29-1.547-.041-1.17.085-1.327,3.667-5.314,1.484,7.341,1.516,7.951a.278.278,0,0,0-.087.258.288.288,0,0,0,.287.228h2.057a.28.28,0,0,0,.27-.355A.284.284,0,0,0,733.5,397.819Z" transform="translate(-678.202 -355.395)" fill="#2f2e41"/>
    <path id="Path_909" data-name="Path 909" d="M786.609,209.492a2.589,2.589,0,1,1-4.453-1.8l.012-.012c.021-.022.041-.043.063-.064h0a.547.547,0,0,0,.082-.074,1.371,1.371,0,0,1,1.705-.642C785.4,207.272,786.609,208.062,786.609,209.492Z" transform="translate(-733.139 -205.642)" fill="#2f2e41"/>
    <path id="Path_910" data-name="Path 910" d="M684.8,214.581a.948.948,0,0,0,1.074.98l6.676,5.479,1.02-1.792-6.883-4.822a.953.953,0,0,0-1.887.156Z" transform="translate(-645.546 -211.839)" fill="#ffb6b6"/>
    <path id="Path_911" data-name="Path 911" d="M734.016,253.916s0-.2-1.063-.19c-1.317.009-4.946-1.882-4.628-3.663a.745.745,0,0,1-.888-.213l1.766-1.7c.554.037.56.408.512.621l1.42.564,3.7,2.124-.653,2.134Z" transform="translate(-684.197 -243.099)" fill="#8a57dc"/>
    <circle id="Ellipse_102" data-name="Ellipse 102" cx="2.171" cy="2.171" r="2.171" transform="translate(48.073 2.278)" fill="#ffb7b7"/>
    <path id="Path_912" data-name="Path 912" d="M763.762,279.87a.871.871,0,0,0,.042,1.1.964.964,0,0,0,.1.353.394.394,0,0,0,.041.063l.01.014a.721.721,0,0,0,.377.254l3.973,1.109.525.146.092.025.051-.717a.642.642,0,0,0,.141-.825l-.073-.121.427-1.147.041-.114,1.088-2.928v-.2l0-.2.011-1.407a2.871,2.871,0,0,0-1.136-2.29,2.82,2.82,0,0,0-1.088-.509h-.009l-.43-.578-1.744.174-.144.3-.175.357-1.264.752-.432,1-.292.679a1.85,1.85,0,0,0-.8,1.239,3.411,3.411,0,0,0,.661,2.232l.022,1.211Z" transform="translate(-716.501 -264.623)" fill="#8a57dc"/>
    <path id="Path_913" data-name="Path 913" d="M778.74,216.08l-.059-.01c-.339-.06-.677-.119-1.015-.18l-.031-.765-.409.685a3.432,3.432,0,0,1-2.627-.252,7.407,7.407,0,0,1-.787-.434c-.083-1.294.44-2.123,1.413-2.036.036,0,.061-.033.092-.049h0c.053-.025.107-.049.161-.07a2.391,2.391,0,0,1,2.51.487A2.857,2.857,0,0,1,778.74,216.08Z" transform="translate(-726.225 -211.062)" fill="#2f2e41"/>
    <path id="Path_914" data-name="Path 914" d="M792.456,217.492a4.415,4.415,0,0,0-3.4-2.954l-.027-.011-.029-.016c.031-.018.061-.033.092-.049h0c.027-.025.054-.05.082-.074l.079,0S792.02,213.952,792.456,217.492Z" transform="translate(-739.999 -212.484)" fill="#fd6584"/>
    <path id="Path_915" data-name="Path 915" d="M823.326,379.754a.366.366,0,0,1-.376.061.871.871,0,0,1-.321-.235,3.026,3.026,0,0,1-.741-1.336l.119-.212a1.163,1.163,0,0,1,.7-1.28.717.717,0,0,1,.442-.038.419.419,0,0,1,.3.3c.046.227-.143.431-.334.561a2.377,2.377,0,0,1-1.119.4,3.855,3.855,0,0,1,1.242,1.114.913.913,0,0,1,.164.323.367.367,0,0,1-.081.339Z" transform="translate(-769.809 -359.616)" fill="#2f2e41"/>
    <path id="f02c4e45-f306-4b42-b3ad-5ddd3016d7d2" d="M542.93,703.284H579.36a.117.117,0,0,0,0-.233H542.93a.117.117,0,1,0,0,.233Z" transform="translate(-516.851 -655.429)" fill="#ccc"/>
    <path id="Path_916" data-name="Path 916" d="M609.89,358.983v.061c-.131-.154-.265-.306-.4-.459l-.167-.191q-.354-.4-.712-.8c-.24-.265-.48-.53-.722-.794l-.176-.191a1.371,1.371,0,0,0-.155-.148.576.576,0,0,0-.19-.1.475.475,0,0,0-.244,0c-.091.021-.179.054-.268.082l-.273.089-.547.179a.018.018,0,0,1-.024-.01h0a.018.018,0,0,1,.013-.025l.138-.044.551-.18.274-.089a.82.82,0,0,1,.265-.053.6.6,0,0,1,.39.183c.057.053.109.109.16.166l.183.2q.368.4.73.806t.721.813l.052.06C609.626,358.678,609.758,358.83,609.89,358.983Z" transform="translate(-574.137 -341.13)" fill="#fff"/>
    <path id="Path_917" data-name="Path 917" d="M619.724,359.221a.448.448,0,0,0-.193-.143l-.075,0a7.96,7.96,0,0,0,2.277,2.317Z" transform="translate(-586.322 -343.646)" fill="#fff"/>
    <path id="Path_918" data-name="Path 918" d="M311.162,297.771l-3-16.079a1.191,1.191,0,0,0-1.131-.964h-.073l-2.046.073-.22.008-1.021.037-.22.008-.657.024-13.242.475h-.06l-2.967-.062-1.1-.023h-.035l-.811-.017-7.062-.147-1.872-.039-.923-.019-.221,0-1.053-.022-.221,0-1.077-.022-.221,0-1.183-.025-.186,0-1.055-.022-.167,0h-.024a1.188,1.188,0,0,0-1.167.992l-2.716,16.685a1.181,1.181,0,0,0,1.166,1.372h15.6a1.081,1.081,0,0,1,.638.21l.3.219a1.192,1.192,0,0,0,.7.232,18.009,18.009,0,0,1,9.192,0,1.175,1.175,0,0,0,.836-.346,1.072,1.072,0,0,1,.7-.312l15.5-.817a1.182,1.182,0,0,0,1.1-1.4Z" transform="translate(-265.412 -272.63)" fill="#ccc"/>
    <path id="Path_919" data-name="Path 919" d="M371.516,233.909a2.057,2.057,0,0,1-2.129,1.98c-.9-.032-1.975-.048-3.141-.023-3.808.081-8.592.605-11.47,2.49a2.056,2.056,0,0,1-1.221.335l-.095-.007a2.052,2.052,0,0,1-1.2-.533c-1.585-1.451-5.221-3.207-13.544-3.331-.035,0-.068,0-.1,0a2.055,2.055,0,0,1-1.922-2.182l.818-12.981.123-1.946.215-3.4a1.352,1.352,0,0,1,1.348-1.266h.008l4.958.029a20.412,20.412,0,0,1,5.19.8,8.967,8.967,0,0,1,1.363.548A5.238,5.238,0,0,1,352.3,215.6a1.79,1.79,0,0,0,1.076.581,1.726,1.726,0,0,0,.195.018,1.783,1.783,0,0,0,1.079-.309c3.239-2.17,9.839-2.335,13.485-2.241a2.052,2.052,0,0,1,2,1.9l.148,1.936.147,1.931.848,11.158.236,3.1A2.126,2.126,0,0,1,371.516,233.909Z" transform="translate(-330.016 -211.275)" fill="#f2f2f2"/>
    <path id="Path_920" data-name="Path 920" d="M369.181,252.438a12.621,12.621,0,0,1,9.152.642,12.049,12.049,0,0,1,2.274,1.4c.2.156.482-.123.281-.281a13.026,13.026,0,0,0-9.144-2.681,12.512,12.512,0,0,0-2.669.536C368.833,252.132,368.937,252.516,369.181,252.438Z" transform="translate(-359.248 -246.106)" fill="#3f3d56"/>
    <path id="Path_921" data-name="Path 921" d="M544.32,267.933a12.62,12.62,0,0,1,9.125-.95,12.03,12.03,0,0,1,2.481.987c.226.12.427-.223.2-.343a13.04,13.04,0,0,0-9.478-1.033,12.507,12.507,0,0,0-2.53,1C543.893,267.709,544.094,268.052,544.32,267.933Z" transform="translate(-517.945 -259.404)" fill="#3f3d56"/>
    <path id="Path_922" data-name="Path 922" d="M544.321,296.262a12.62,12.62,0,0,1,9.125-.95,12.03,12.03,0,0,1,2.481.986c.226.12.427-.223.2-.343a13.039,13.039,0,0,0-9.478-1.033,12.507,12.507,0,0,0-2.53,1c-.227.119-.026.462.2.343Z" transform="translate(-517.946 -285.082)" fill="#3f3d56"/>
    <path id="Path_923" data-name="Path 923" d="M556.239,324.453a.17.17,0,0,0-.1-.165,13.04,13.04,0,0,0-7.507-1.406l-.049.005h0l-.047.007a12.563,12.563,0,0,0-4.4,1.357.2.2,0,0,0-.1.173v4.946a.2.2,0,0,0,.252.191l.184-.051a19.7,19.7,0,0,1,4.244-.664l.093,0a22.232,22.232,0,0,1,3.5.126.715.715,0,0,1,.073.008l.18.021.069.009c.232.029.463.062.694.1q.5.08,1,.178l.064.013c.535.106,1.068.23,1.6.366a.2.2,0,0,0,.252-.192v-5.008A.015.015,0,0,0,556.239,324.453Z" transform="translate(-517.96 -310.764)" fill="#3f3d56"/>
    <path id="Path_924" data-name="Path 924" d="M587.895,325.91a.654.654,0,0,0-.469-.041.555.555,0,0,0-.312.293,1.408,1.408,0,0,0-.1.4c-.008.055-.009.124.046.149a.117.117,0,0,0,.118-.023.352.352,0,0,0,.069-.1,1.049,1.049,0,0,1,.887-.482l.147.059a1.741,1.741,0,0,0-.383-.262Z" transform="translate(-556.91 -313.522)" fill="#ff6582"/>
    <path id="Path_925" data-name="Path 925" d="M584.31,334.682a.862.862,0,0,0-.46-.4.983.983,0,0,0-.71.187,20.756,20.756,0,0,0-1.84,1.207v.007l1.373-.084a2.615,2.615,0,0,0,.965-.183.912.912,0,0,1,.345-.128.576.576,0,0,1,.4.192c.633.6.816,1.517,1.526,2.044A19.293,19.293,0,0,0,584.31,334.682Z" transform="translate(-551.736 -321.155)" fill="#fff"/>
    <path id="Path_926" data-name="Path 926" d="M568.438,382.285l-.093,0c-.221-.079-.448-.15-.677-.211-.148-.04-.3-.076-.451-.106-.171-.037-.343-.066-.516-.091a8.242,8.242,0,0,0-.99-.083.018.018,0,1,1,0-.036c.042,0,.085,0,.126,0a8.263,8.263,0,0,1,.992.1c.171.028.342.061.512.1.154.034.307.073.459.115Q568.123,382.167,568.438,382.285Z" transform="translate(-537.589 -364.207)" fill="#fff"/>
    <path id="Path_927" data-name="Path 927" d="M571.509,371.306l-.069-.009c-.091-.076-.184-.147-.281-.217-.121-.088-.245-.17-.372-.247a6.609,6.609,0,0,0-.88-.448,8.769,8.769,0,0,0-1.487-.469,14.8,14.8,0,0,0-1.759-.276c-.591-.061-1.185-.1-1.779-.135-.025,0-.027-.038,0-.037l.224.015c.6.037,1.2.079,1.8.147a13.7,13.7,0,0,1,1.756.3,8.544,8.544,0,0,1,1.44.494,6.543,6.543,0,0,1,.774.412c.158.1.31.205.456.318C571.39,371.206,571.451,371.254,571.509,371.306Z" transform="translate(-536.837 -353.064)" fill="#fff"/>
    <path id="Path_928" data-name="Path 928" d="M570.687,372.47a.708.708,0,0,0-.073-.008c-.028-.023-.057-.044-.086-.065a6.066,6.066,0,0,0-.638-.4,6.756,6.756,0,0,0-.616-.3,8.661,8.661,0,0,0-1.487-.469,14.8,14.8,0,0,0-1.759-.276c-.591-.061-1.185-.1-1.779-.135-.025,0-.025-.038,0-.037l.224.015c.6.037,1.2.08,1.8.147a13.709,13.709,0,0,1,1.756.3,8.5,8.5,0,0,1,1.439.494q.262.119.513.26A5.416,5.416,0,0,1,570.687,372.47Z" transform="translate(-536.264 -354.258)" fill="#fff"/>
    <path id="Path_929" data-name="Path 929" d="M573.446,335.89l-.064-.013c-.024-.025-.046-.052-.069-.078q-.171-.2-.338-.4c-.439-.522-.855-1.06-1.247-1.609q-.505-.7-.958-1.436c-.145-.231-.284-.464-.42-.7q-.159-.274-.31-.55c-.029-.053-.057-.106-.085-.159-.065-.125-.13-.251-.2-.374a1.057,1.057,0,0,0-.321-.382.47.47,0,0,0-.228-.078.688.688,0,0,0-.329.085,10.713,10.713,0,0,0-2.085,1.279,10.076,10.076,0,0,0-1.694,1.674c-.016.019-.05,0-.036-.019.06-.074.121-.148.182-.221a10.167,10.167,0,0,1,1.6-1.523l.005,0c.052-.041.1-.081.156-.119a10.831,10.831,0,0,1,1.023-.668q.27-.157.553-.3c.046-.024.094-.048.142-.07l.143-.069a.78.78,0,0,1,.3-.083c.369-.005.558.366.689.616l.125.235c.159.3.325.59.5.88.1.18.213.359.323.537.158.253.319.5.488.753h0c.195.294.4.583.607.871q.539.738,1.129,1.442Q573.236,335.654,573.446,335.89Z" transform="translate(-537.016 -317.359)" fill="#fff"/>
    <path id="Path_930" data-name="Path 930" d="M585.236,324.683l-.037.016a1,1,0,0,0-.808-.489.96.96,0,0,0-1.063.806.8.8,0,0,0,.161.556l-.034.02a.831.831,0,0,1-.168-.579,1,1,0,0,1,1.107-.839A1.042,1.042,0,0,1,585.236,324.683Z" transform="translate(-553.535 -312.006)" fill="#ff6582"/>
    <path id="Path_931" data-name="Path 931" d="M566.85,339.3a.979.979,0,0,0-.891.057,14.049,14.049,0,0,1,1.447.3C567.208,339.557,567.054,339.4,566.85,339.3Z" transform="translate(-537.831 -325.648)" fill="#fff"/>
    <path id="Path_932" data-name="Path 932" d="M565.411,340.69l-.054.039c.018-.014.037-.026.056-.038Z" transform="translate(-537.285 -326.979)" fill="#fff"/>
    <path id="Path_933" data-name="Path 933" d="M551.18,337.28l-.064-.064a1.863,1.863,0,0,0-.585-.428.937.937,0,0,0-.355-.073,1.121,1.121,0,0,0-.369.072c-.056.02-.11.042-.163.066s-.121.057-.181.086q-.168.083-.332.173-.326.179-.632.386-.159.107-.311.222t-.277.218c-.019.016-.048-.01-.029-.026l.072-.059q.1-.082.208-.161.192-.144.394-.278.314-.207.65-.386.168-.089.34-.171l.105-.048a1.81,1.81,0,0,1,.251-.091,1,1,0,0,1,.378-.033,1.069,1.069,0,0,1,.349.108,2.291,2.291,0,0,1,.579.462C551.226,337.272,551.2,337.3,551.18,337.28Z" transform="translate(-521.439 -323.344)" fill="#fff"/>
    <path id="Path_934" data-name="Path 934" d="M369.181,280.767a12.621,12.621,0,0,1,9.152.642,12.05,12.05,0,0,1,2.274,1.4c.2.156.482-.123.281-.281a13.026,13.026,0,0,0-9.144-2.681,12.512,12.512,0,0,0-2.669.536C368.833,280.461,368.937,280.845,369.181,280.767Z" transform="translate(-359.248 -271.784)" fill="#3f3d56"/>
    <path id="Path_935" data-name="Path 935" d="M369.181,309.095a12.621,12.621,0,0,1,9.152.642,12.048,12.048,0,0,1,2.274,1.4c.2.156.482-.123.281-.281a13.026,13.026,0,0,0-9.144-2.681,12.512,12.512,0,0,0-2.669.536C368.833,308.789,368.937,309.173,369.181,309.095Z" transform="translate(-359.248 -297.461)" fill="#3f3d56"/>
    <path id="Path_936" data-name="Path 936" d="M369.181,337.423a12.621,12.621,0,0,1,9.152.642,12.049,12.049,0,0,1,2.274,1.4c.2.156.482-.123.281-.281a13.026,13.026,0,0,0-9.144-2.681,12.514,12.514,0,0,0-2.669.536C368.833,337.117,368.937,337.5,369.181,337.423Z" transform="translate(-359.248 -323.138)" fill="#3f3d56"/>
    <path id="Path_937" data-name="Path 937" d="M369.181,365.751a12.621,12.621,0,0,1,9.152.642,12.048,12.048,0,0,1,2.274,1.4c.2.156.482-.123.281-.281a13.026,13.026,0,0,0-9.144-2.681,12.515,12.515,0,0,0-2.669.536C368.833,365.445,368.937,365.829,369.181,365.751Z" transform="translate(-359.248 -348.814)" fill="#3f3d56"/>
    <path id="Path_938" data-name="Path 938" d="M369.181,394.08a12.621,12.621,0,0,1,9.152.642,12.047,12.047,0,0,1,2.274,1.4c.2.156.482-.123.281-.281a13.026,13.026,0,0,0-9.144-2.681,12.512,12.512,0,0,0-2.669.536C368.833,393.774,368.937,394.158,369.181,394.08Z" transform="translate(-359.248 -374.492)" fill="#3f3d56"/>
    <path id="Path_939" data-name="Path 939" d="M473.376,222.427v6.357c0,.126-.221.232-.518.261h-.008c-.05,0-.1.007-.155.007a1.364,1.364,0,0,1-.482-.079l-.042-.018-.04-.021c-.074-.044-.117-.1-.117-.151v-6.906A8.972,8.972,0,0,1,473.376,222.427Z" transform="translate(-452.677 -219.287)" fill="#8a57dc"/>
    <rect id="Rectangle_104" data-name="Rectangle 104" width="0.195" height="22.669" transform="translate(23.36 4.614)" fill="#e6e6e6"/>
    <path id="Path_940" data-name="Path 940" d="M733.178,333.884a.948.948,0,0,0,.828-1.2l4.041-1.886,2.433-3.935-1.912-.772-1.641,3.171-4.154,2.768a.953.953,0,0,0,.405,1.85Z" transform="translate(-688.452 -313.751)" fill="#ffb6b6"/>
    <path id="Path_941" data-name="Path 941" d="M785.539,292.916s.476.155-.046,1.079c-.419.74-2.457,5-3.289,5.835a.745.745,0,0,1-.093.909l-1.92-1.524c-.037-.554.33-.609.547-.591l.442-1.566,1.541-3.863,2.476-.4Z" transform="translate(-732.011 -283.569)" fill="#8a57dc"/>
    <path id="Path_942" data-name="Path 942" d="M817.266,196.292c.091-.367.75-.638-.379-1.151-.274-.124-.263-.553-.494-.745a.8.8,0,0,0-.84-.147.821.821,0,0,0-.4.658,2.423,2.423,0,0,0,.092.8l-.022.032,1.341,1.026c.164.126.379.257.563.163C817.33,196.819,817.21,196.52,817.266,196.292Z" transform="translate(-763.697 -194.186)" fill="#2f2e41"/>
  </g>
</svg>
