<svg xmlns="http://www.w3.org/2000/svg" width="71.504" height="47.88" viewBox="0 0 71.504 47.88">
  <g id="undraw_reviews_lp8w" transform="translate(0)">
    <path id="Path_992" data-name="Path 992" d="M850.505,442.038a.945.945,0,0,1,.144-.031l1.953-3.967-.6-.894,1.231-1.076,1.548,1.894-3.152,4.587a.936.936,0,1,1-1.128-.513Z" transform="translate(-791.814 -413.372)" fill="#a0616a"/>
    <path id="Path_993" data-name="Path 993" d="M857.237,417.559a.4.4,0,0,1-.091.071l-2,1.158a.4.4,0,0,1-.564-.175l-.972-2.053a.4.4,0,0,1,.137-.5l1.238-.842a.4.4,0,0,1,.51.049L857.229,417a.4.4,0,0,1,.008.559Z" transform="translate(-795.212 -394.313)" fill="#ccc"/>
    <path id="Path_994" data-name="Path 994" d="M699.881,474.128l-1.055.287-1.609-3.932,1.557-.424Z" transform="translate(-635.051 -428.148)" fill="#a0616a"/>
    <path id="Path_995" data-name="Path 995" d="M1.327,0H3.436V1.327H0A1.327,1.327,0,0,1,1.327,0Z" transform="translate(61.659 46.519) rotate(-15.221)" fill="#2f2e41"/>
    <path id="Path_996" data-name="Path 996" d="M609.482,481.643h-1.093l-.52-4.216h1.613Z" transform="translate(-553.669 -434.858)" fill="#a0616a"/>
    <path id="Path_997" data-name="Path 997" d="M591.384,521.212h2.108v1.327h-3.435A1.327,1.327,0,0,1,591.384,521.212Z" transform="translate(-537.446 -474.739)" fill="#2f2e41"/>
    <circle id="Ellipse_107" data-name="Ellipse 107" cx="2.19" cy="2.19" r="2.19" transform="translate(54.775 15.122)" fill="#a0616a"/>
    <path id="Path_998" data-name="Path 998" d="M802.74,500.352h-1.494a.4.4,0,0,1-.4-.377c-.445-7.076-.185-12.152.819-15.974a.43.43,0,0,1,.016-.049l.08-.2a.4.4,0,0,1,.373-.252h3.072a.4.4,0,0,1,.3.14l.417.487c.008.009.016.019.023.029,1.881,2.624,3.567,7.753,5.52,14.648a.4.4,0,0,1-.264.492l-1.605.514a.4.4,0,0,1-.484-.208l-4.166-8.64a.312.312,0,0,0-.59.093l-1.224,8.951A.4.4,0,0,1,802.74,500.352Z" transform="translate(-746.995 -456.573)" fill="#2f2e41"/>
    <path id="Path_999" data-name="Path 999" d="M814.864,408.087h-.013l-3.731-.118a.4.4,0,0,1-.386-.353c-.473-3.829.824-4.854,1.4-5.118a.309.309,0,0,0,.179-.245l.05-.4a.4.4,0,0,1,.079-.195,4.585,4.585,0,0,1,2.809-1.674.4.4,0,0,1,.468.343l.075.576a.318.318,0,0,0,.064.151c1.9,2.478-.216,6.137-.659,6.845h0A.4.4,0,0,1,814.864,408.087Z" transform="translate(-756.099 -380.497)" fill="#ccc"/>
    <path id="Path_1000" data-name="Path 1000" d="M817,348.761a8.718,8.718,0,0,0-1.739-1.821,5.164,5.164,0,0,0-1.846-.977,2.864,2.864,0,0,0-2.047.183,2.2,2.2,0,0,0-1.263,1.684c0,.225.056.53.278.491l.064.009,1.606-.324.684,2.373a.458.458,0,0,0,.743.365c.025-.01.238-.489.238-.489a.089.089,0,0,1,.154-.026l.127.158a.178.178,0,0,0,.208.053l2.618-1.093c.121-.05.255-.116.29-.242A.432.432,0,0,0,817,348.761Z" transform="translate(-755.621 -331.202)" fill="#2f2e41"/>
    <path id="Path_1001" data-name="Path 1001" d="M724.9,716.678H698.065a.089.089,0,0,1,0-.178H724.9a.089.089,0,0,1,0,.178Z" transform="translate(-653.487 -668.798)" fill="#3f3d56"/>
    <path id="Path_1002" data-name="Path 1002" d="M815.4,535.1a.285.285,0,0,1-.168-.056l-.406-.295a.2.2,0,0,0-.232,0l-.406.295a.286.286,0,0,1-.441-.32l.155-.477a.2.2,0,0,0-.072-.221l-.406-.295a.286.286,0,0,1,.168-.518h.5a.2.2,0,0,0,.188-.136l.155-.477a.287.287,0,0,1,.545,0l.155.477a.2.2,0,0,0,.188.136h.5a.286.286,0,0,1,.168.518l-.406.295a.2.2,0,0,0-.072.221l.155.477a.282.282,0,0,1-.1.32A.285.285,0,0,1,815.4,535.1Z" transform="translate(-758.539 -501.112)" fill="#8a57dc"/>
    <path id="Path_1003" data-name="Path 1003" d="M838.65,451.515a.958.958,0,0,0,.125-1.463l.693-8.37-2.064.284-.039,8.132a.963.963,0,0,0,1.284,1.417Z" transform="translate(-780.233 -418.484)" fill="#a0616a"/>
    <path id="Path_1004" data-name="Path 1004" d="M838.142,418.7a.4.4,0,0,1-.114-.017l-2.215-.652a.4.4,0,0,1-.261-.53l.82-2.118a.4.4,0,0,1,.459-.247l1.464.318a.4.4,0,0,1,.316.4l-.068,2.451A.4.4,0,0,1,838.142,418.7Z" transform="translate(-778.772 -394.301)" fill="#ccc"/>
    <path id="Path_1005" data-name="Path 1005" d="M237.542,444.072H199.648a.625.625,0,0,1-.624-.624V432.124a.625.625,0,0,1,.624-.624h37.894a.625.625,0,0,1,.624.624v11.324A.625.625,0,0,1,237.542,444.072Zm-37.894-12.394a.446.446,0,0,0-.446.446v11.324a.446.446,0,0,0,.446.446h37.894a.446.446,0,0,0,.446-.446V432.124a.446.446,0,0,0-.446-.446Z" transform="translate(-199.024 -409.209)" fill="#3f3d56"/>
    <path id="Path_1006" data-name="Path 1006" d="M365.8,592.2a.35.35,0,0,1-.206-.068l-.5-.361a.241.241,0,0,0-.284,0l-.5.361a.351.351,0,0,1-.54-.392l.19-.584a.241.241,0,0,0-.088-.27l-.5-.361a.351.351,0,0,1,.206-.635h.615a.241.241,0,0,0,.23-.167l.19-.584a.351.351,0,0,1,.668,0l.19.584a.241.241,0,0,0,.23.167h.615a.351.351,0,0,1,.206.635l-.5.361a.241.241,0,0,0-.088.27l.19.584a.346.346,0,0,1-.128.392A.35.35,0,0,1,365.8,592.2Z" transform="translate(-348.591 -552.574)" fill="#8a57dc"/>
    <path id="Path_1007" data-name="Path 1007" d="M422.306,592.2a.35.35,0,0,1-.206-.068l-.5-.361a.241.241,0,0,0-.284,0l-.5.361a.351.351,0,0,1-.54-.392l.19-.584a.241.241,0,0,0-.088-.27l-.5-.361a.351.351,0,0,1,.206-.635h.615a.241.241,0,0,0,.23-.167l.19-.584a.351.351,0,0,1,.668,0l.19.584a.241.241,0,0,0,.23.167h.615a.351.351,0,0,1,.206.635l-.5.361a.241.241,0,0,0-.088.27l.19.584a.346.346,0,0,1-.128.392A.35.35,0,0,1,422.306,592.2Z" transform="translate(-400.061 -552.574)" fill="#8a57dc"/>
    <path id="Path_1008" data-name="Path 1008" d="M478.815,592.2a.349.349,0,0,1-.206-.068l-.5-.361a.242.242,0,0,0-.284,0l-.5.361a.351.351,0,0,1-.54-.392l.19-.584a.241.241,0,0,0-.088-.27l-.5-.361a.351.351,0,0,1,.206-.635h.615a.241.241,0,0,0,.23-.167l.19-.584a.351.351,0,0,1,.668,0l.19.584a.241.241,0,0,0,.23.167h.615a.351.351,0,0,1,.206.635l-.5.361a.241.241,0,0,0-.088.27l.19.584a.346.346,0,0,1-.128.392A.349.349,0,0,1,478.815,592.2Z" transform="translate(-451.531 -552.574)" fill="#8a57dc"/>
    <path id="Path_1009" data-name="Path 1009" d="M535.323,592.2a.35.35,0,0,1-.206-.068l-.5-.361a.241.241,0,0,0-.284,0l-.5.361a.351.351,0,0,1-.54-.392l.19-.584a.241.241,0,0,0-.088-.27l-.5-.361a.351.351,0,0,1,.206-.635h.615a.241.241,0,0,0,.23-.167l.19-.584a.351.351,0,0,1,.668,0l.19.584a.241.241,0,0,0,.23.167h.615a.351.351,0,0,1,.206.635l-.5.361a.241.241,0,0,0-.088.27l.19.584a.346.346,0,0,1-.128.392A.35.35,0,0,1,535.323,592.2Z" transform="translate(-503.001 -552.574)" fill="#8a57dc"/>
    <path id="Path_1010" data-name="Path 1010" d="M589.787,591.887a.385.385,0,0,1-.227-.075.38.38,0,0,1-.14-.431l.19-.584a.207.207,0,0,0-.075-.232l-.5-.361a.385.385,0,0,1,.227-.7h.615a.206.206,0,0,0,.2-.143l.19-.584a.386.386,0,0,1,.733,0l.19.584a.207.207,0,0,0,.2.143H592a.386.386,0,0,1,.227.7l-.5.361a.207.207,0,0,0-.075.232l.19.584a.386.386,0,0,1-.593.431l-.5-.361a.207.207,0,0,0-.244,0l-.5.361A.385.385,0,0,1,589.787,591.887Zm.846-.654a.385.385,0,0,1,.227.074l.5.361a.207.207,0,0,0,.319-.232l-.19-.585a.384.384,0,0,1,.14-.431l.5-.361a.207.207,0,0,0-.122-.375h-.615a.385.385,0,0,1-.367-.266l-.19-.585a.207.207,0,0,0-.394,0l-.19.585a.385.385,0,0,1-.367.266h-.615a.207.207,0,0,0-.122.375l.5.361a.385.385,0,0,1,.14.431l-.19.585a.207.207,0,0,0,.319.232l.5-.361A.385.385,0,0,1,590.633,591.233Z" transform="translate(-554.118 -552.222)" fill="#3f3d56"/>
    <path id="Path_1011" data-name="Path 1011" d="M248.1,461.5a.58.58,0,0,0,0,1.159h29.335a.58.58,0,0,0,0-1.159Z" transform="translate(-243.199 -436.534)" fill="#ccc"/>
    <path id="Path_1012" data-name="Path 1012" d="M248.1,495.5a.58.58,0,1,0,0,1.159h29.335a.58.58,0,0,0,0-1.159Z" transform="translate(-243.199 -467.503)" fill="#ccc"/>
    <path id="Path_1013" data-name="Path 1013" d="M248.1,529.5a.58.58,0,1,0,0,1.159h29.335a.58.58,0,0,0,0-1.159Z" transform="translate(-243.199 -498.471)" fill="#ccc"/>
    <path id="Path_1014" data-name="Path 1014" d="M248.1,461.5a.58.58,0,0,0,0,1.159h29.335a.58.58,0,0,0,0-1.159Z" transform="translate(-243.199 -436.534)" fill="#ccc"/>
    <path id="Path_1015" data-name="Path 1015" d="M248.1,495.5a.58.58,0,1,0,0,1.159h29.335a.58.58,0,0,0,0-1.159Z" transform="translate(-243.199 -467.503)" fill="#ccc"/>
    <path id="Path_1016" data-name="Path 1016" d="M248.1,529.5a.58.58,0,1,0,0,1.159h29.335a.58.58,0,0,0,0-1.159Z" transform="translate(-243.199 -498.471)" fill="#ccc"/>
    <path id="Path_1017" data-name="Path 1017" d="M237.542,194.072H199.648a.625.625,0,0,1-.624-.624V182.124a.625.625,0,0,1,.624-.624h37.894a.625.625,0,0,1,.624.624v11.324A.625.625,0,0,1,237.542,194.072Zm-37.894-12.394a.446.446,0,0,0-.446.446v11.324a.446.446,0,0,0,.446.446h37.894a.446.446,0,0,0,.446-.446V182.124a.446.446,0,0,0-.446-.446Z" transform="translate(-199.024 -181.5)" fill="#3f3d56"/>
    <path id="Path_1018" data-name="Path 1018" d="M365.8,342.2a.35.35,0,0,1-.206-.068l-.5-.361a.241.241,0,0,0-.284,0l-.5.361a.351.351,0,0,1-.54-.392l.19-.584a.241.241,0,0,0-.088-.27l-.5-.361a.351.351,0,0,1,.206-.635h.615a.241.241,0,0,0,.23-.167l.19-.584a.351.351,0,0,1,.668,0l.19.584a.241.241,0,0,0,.23.167h.615a.351.351,0,0,1,.206.635l-.5.361a.241.241,0,0,0-.088.27l.19.584a.346.346,0,0,1-.128.392A.35.35,0,0,1,365.8,342.2Z" transform="translate(-348.591 -324.865)" fill="#8a57dc"/>
    <path id="Path_1019" data-name="Path 1019" d="M422.306,342.2a.35.35,0,0,1-.206-.068l-.5-.361a.241.241,0,0,0-.284,0l-.5.361a.351.351,0,0,1-.54-.392l.19-.584a.241.241,0,0,0-.088-.27l-.5-.361a.351.351,0,0,1,.206-.635h.615a.241.241,0,0,0,.23-.167l.19-.584a.351.351,0,0,1,.668,0l.19.584a.241.241,0,0,0,.23.167h.615a.351.351,0,0,1,.206.635l-.5.361a.241.241,0,0,0-.088.27l.19.584a.346.346,0,0,1-.128.392A.35.35,0,0,1,422.306,342.2Z" transform="translate(-400.061 -324.865)" fill="#8a57dc"/>
    <path id="Path_1020" data-name="Path 1020" d="M478.815,342.2a.35.35,0,0,1-.206-.068l-.5-.361a.241.241,0,0,0-.284,0l-.5.361a.351.351,0,0,1-.54-.392l.19-.584a.241.241,0,0,0-.088-.27l-.5-.361a.351.351,0,0,1,.206-.635h.615a.241.241,0,0,0,.23-.167l.19-.584a.351.351,0,0,1,.668,0l.19.584a.241.241,0,0,0,.23.167h.615a.351.351,0,0,1,.206.635l-.5.361a.241.241,0,0,0-.088.27l.19.584a.346.346,0,0,1-.127.392A.351.351,0,0,1,478.815,342.2Z" transform="translate(-451.531 -324.865)" fill="#8a57dc"/>
    <path id="Path_1021" data-name="Path 1021" d="M589.787,341.887a.384.384,0,0,1-.227-.075.38.38,0,0,1-.14-.431l.19-.584a.207.207,0,0,0-.075-.232l-.5-.361a.386.386,0,0,1,.227-.7h.615a.206.206,0,0,0,.2-.143l.19-.584a.386.386,0,0,1,.733,0l.19.584a.207.207,0,0,0,.2.143H592a.386.386,0,0,1,.227.7l-.5.361a.207.207,0,0,0-.075.232l.19.584a.386.386,0,0,1-.593.431l-.5-.361a.207.207,0,0,0-.244,0l-.5.361A.384.384,0,0,1,589.787,341.887Zm.846-.654a.385.385,0,0,1,.227.074l.5.361a.207.207,0,0,0,.319-.232l-.19-.585a.384.384,0,0,1,.14-.431l.5-.361a.207.207,0,0,0-.122-.375h-.615a.384.384,0,0,1-.367-.266l-.19-.584a.207.207,0,0,0-.394,0l-.19.584a.384.384,0,0,1-.367.266h-.615a.207.207,0,0,0-.122.375l.5.361a.385.385,0,0,1,.14.431l-.19.585a.207.207,0,0,0,.319.232l.5-.361A.384.384,0,0,1,590.633,341.233Z" transform="translate(-554.118 -324.512)" fill="#3f3d56"/>
    <path id="Path_1022" data-name="Path 1022" d="M532.787,341.726a.384.384,0,0,1-.227-.075.38.38,0,0,1-.14-.431l.19-.584a.207.207,0,0,0-.075-.232l-.5-.361a.385.385,0,0,1,.227-.7h.615a.206.206,0,0,0,.2-.143l.19-.584a.386.386,0,0,1,.733,0l.19.584a.207.207,0,0,0,.2.143H535a.386.386,0,0,1,.227.7l-.5.361a.207.207,0,0,0-.075.232l.19.584a.386.386,0,0,1-.593.431l-.5-.361a.207.207,0,0,0-.244,0l-.5.361A.384.384,0,0,1,532.787,341.726Zm.846-.654a.384.384,0,0,1,.227.074l.5.361a.207.207,0,0,0,.319-.232l-.19-.584a.385.385,0,0,1,.14-.431l.5-.361a.207.207,0,0,0-.122-.375h-.615a.384.384,0,0,1-.367-.266l-.19-.584a.207.207,0,0,0-.394,0l-.19.584a.384.384,0,0,1-.367.266h-.615a.207.207,0,0,0-.122.375l.5.361a.385.385,0,0,1,.14.431l-.19.584a.207.207,0,0,0,.319.232l.5-.361A.385.385,0,0,1,533.633,341.072Z" transform="translate(-502.201 -324.366)" fill="#3f3d56"/>
    <path id="Path_1023" data-name="Path 1023" d="M248.1,211.5a.58.58,0,1,0,0,1.159h29.335a.58.58,0,0,0,0-1.159Z" transform="translate(-243.199 -208.825)" fill="#ccc"/>
    <path id="Path_1024" data-name="Path 1024" d="M248.1,245.5a.58.58,0,1,0,0,1.159h29.335a.58.58,0,0,0,0-1.159Z" transform="translate(-243.199 -239.794)" fill="#ccc"/>
    <path id="Path_1025" data-name="Path 1025" d="M248.1,279.5a.58.58,0,1,0,0,1.159h29.335a.58.58,0,0,0,0-1.159Z" transform="translate(-243.199 -270.762)" fill="#ccc"/>
    <path id="Path_1026" data-name="Path 1026" d="M248.1,211.5a.58.58,0,1,0,0,1.159h29.335a.58.58,0,0,0,0-1.159Z" transform="translate(-243.199 -208.825)" fill="#ccc"/>
    <path id="Path_1027" data-name="Path 1027" d="M248.1,245.5a.58.58,0,1,0,0,1.159h29.335a.58.58,0,0,0,0-1.159Z" transform="translate(-243.199 -239.794)" fill="#ccc"/>
    <path id="Path_1028" data-name="Path 1028" d="M248.1,279.5a.58.58,0,1,0,0,1.159h29.335a.58.58,0,0,0,0-1.159Z" transform="translate(-243.199 -270.762)" fill="#ccc"/>
  </g>
</svg>
