<svg xmlns="http://www.w3.org/2000/svg" width="57.176" height="47.88" viewBox="0 0 57.176 47.88">
  <g id="undraw_feedback_re_urmj" transform="translate(0.023)">
    <path id="Path_943" data-name="Path 943" d="M312.4,198.754H262.087a.081.081,0,1,1,0-.162H312.4a.081.081,0,1,1,0,.162Z" transform="translate(-262.029 -195.845)" fill="#cacaca"/>
    <ellipse id="Ellipse_103" data-name="Ellipse 103" cx="0.869" cy="0.889" rx="0.869" ry="0.889" transform="translate(0.968 0)" fill="#3f3d56"/>
    <ellipse id="Ellipse_104" data-name="Ellipse 104" cx="0.869" cy="0.889" rx="0.869" ry="0.889" transform="translate(3.971 0)" fill="#3f3d56"/>
    <ellipse id="Ellipse_105" data-name="Ellipse 105" cx="0.869" cy="0.889" rx="0.869" ry="0.889" transform="translate(6.974 0)" fill="#3f3d56"/>
    <path id="Path_944" data-name="Path 944" d="M846.184,166.838H844.05a.162.162,0,1,0,0,.323h2.133a.162.162,0,1,0,0-.323Z" transform="translate(-797.609 -166.617)" fill="#3f3d56"/>
    <path id="Path_945" data-name="Path 945" d="M846.184,174.458H844.05a.162.162,0,1,0,0,.323h2.133a.162.162,0,1,0,0-.323Z" transform="translate(-797.609 -173.631)" fill="#3f3d56"/>
    <path id="Path_946" data-name="Path 946" d="M846.184,182.068H844.05a.162.162,0,1,0,0,.323h2.133a.162.162,0,1,0,0-.323Z" transform="translate(-797.609 -180.635)" fill="#3f3d56"/>
    <path id="Path_947" data-name="Path 947" d="M321.533,234.906H275.7a.959.959,0,0,0-.957.957v.154a.959.959,0,0,0,.957.957h45.829a.959.959,0,0,0,.957-.957v-.154A.959.959,0,0,0,321.533,234.906Z" transform="translate(-273.756 -229.269)" fill="#f0f0f0"/>
    <path id="Path_948" data-name="Path 948" d="M301.56,244.183H297.2a.368.368,0,1,1,0-.737h4.362A.369.369,0,0,1,301.56,244.183Z" transform="translate(-294.081 -237.13)" fill="#fff"/>
    <path id="Path_949" data-name="Path 949" d="M465.56,244.183H461.2a.368.368,0,1,1,0-.737h4.362A.369.369,0,0,1,465.56,244.183Z" transform="translate(-445.031 -237.13)" fill="#fff"/>
    <path id="Path_950" data-name="Path 950" d="M629.56,244.183H625.2a.368.368,0,0,1,0-.737h4.362A.369.369,0,0,1,629.56,244.183Z" transform="translate(-595.981 -237.13)" fill="#fff"/>
    <path id="Path_951" data-name="Path 951" d="M785.06,244.683H780.7a.368.368,0,0,1,0-.737h4.362A.369.369,0,0,1,785.06,244.683Z" transform="translate(-739.108 -237.591)" fill="#8a57dc"/>
    <rect id="Rectangle_105" data-name="Rectangle 105" width="0.159" height="2.069" transform="translate(38.987 5.637)" fill="#fff"/>
    <path id="Path_952" data-name="Path 952" d="M323.672,573.49h-18.7a.629.629,0,0,1-.629-.629v-2.739a.629.629,0,0,1,.629-.629h18.7a.629.629,0,0,1,.629.629v2.739A.629.629,0,0,1,323.672,573.49Z" transform="translate(-300.993 -537.233)" fill="#f0f0f0"/>
    <path id="Path_953" data-name="Path 953" d="M326.76,577.975H310.3a.629.629,0,0,1-.629-.629v-1.891a.629.629,0,0,1,.629-.629h17.856a.629.629,0,0,1,.629.629v.5A2.024,2.024,0,0,1,326.76,577.975Z" transform="translate(-305.899 -542.141)" fill="#fff"/>
    <path id="Path_954" data-name="Path 954" d="M364.259,588.407h-7.517a.162.162,0,0,1,0-.324h7.518a.162.162,0,0,1,0,.324Z" transform="translate(-349.077 -554.342)" fill="#e6e6e6"/>
    <path id="Path_955" data-name="Path 955" d="M368.065,596.74H356.742a.162.162,0,1,1,0-.324h11.323a.162.162,0,0,1,0,.324Z" transform="translate(-349.077 -562.012)" fill="#e6e6e6"/>
    <path id="Path_956" data-name="Path 956" d="M308.2,326.692H286.872a.643.643,0,0,1-.642-.642v-16.3a.643.643,0,0,1,.642-.642H308.2a.643.643,0,0,1,.642.642v16.3A.643.643,0,0,1,308.2,326.692Z" transform="translate(-284.326 -297.565)" fill="#fff"/>
    <path id="Path_957" data-name="Path 957" d="M307.278,325.851H285.952a.722.722,0,0,1-.721-.721v-16.3a.722.722,0,0,1,.721-.721h21.326a.722.722,0,0,1,.721.721v16.3A.722.722,0,0,1,307.278,325.851Zm-21.326-17.586a.563.563,0,0,0-.562.562v16.3a.563.563,0,0,0,.562.562h21.326a.563.563,0,0,0,.562-.562v-16.3a.563.563,0,0,0-.562-.562Z" transform="translate(-283.405 -296.645)" fill="#f0f0f0"/>
    <path id="Path_958" data-name="Path 958" d="M286.85,491.106v2.462a.593.593,0,0,0,.593.593h21.326a.593.593,0,0,0,.593-.593v-2.462Z" transform="translate(-284.896 -465.083)" fill="#f0f0f0"/>
    <rect id="Rectangle_106" data-name="Rectangle 106" width="0.159" height="26.542" transform="translate(2.069 11.779) rotate(-57.371)" fill="#f0f0f0"/>
    <rect id="Rectangle_107" data-name="Rectangle 107" width="26.542" height="0.159" transform="translate(2.132 25.956) rotate(-32.629)" fill="#f0f0f0"/>
    <path id="Path_959" data-name="Path 959" d="M528.534,543.8h-.986l-.469-3.8h1.455Z" transform="translate(-485.159 -497.029)" fill="#a0616a"/>
    <path id="Path_960" data-name="Path 960" d="M773.5,742.719l-1.052-.427-.031-.013-.581.44A1.237,1.237,0,0,0,770.6,743.9c0,.017,0,.036,0,.054V744h3.179v-1.278Z" transform="translate(-730.155 -696.269)" fill="#2f2e41"/>
    <path id="Path_961" data-name="Path 961" d="M485.873,534.764l-.93.327-1.7-3.432,1.373-.483Z" transform="translate(-444.806 -488.91)" fill="#a0616a"/>
    <path id="Path_962" data-name="Path 962" d="M749,735.552l-1.134-.054-.034,0-.4.608a1.237,1.237,0,0,0-.773,1.526c0,.017.01.034.016.052l.013.038,3-1.055-.424-1.205Z" transform="translate(-708.07 -689.993)" fill="#2f2e41"/>
    <path id="Path_963" data-name="Path 963" d="M722.81,528.68c.9-.035-.215,7.153-.215,7.153s.327,6.311.258,6.642a7.18,7.18,0,0,0-.009,1.224c-.177-.322-2-.079-2-.079l-.248-6.4-1.266-5.125-1.756,3.435,1.683,5.272s.681.631.609.88a5.882,5.882,0,0,1-2.185.824c-.328.013-.18-.4-.2-.814s-1.559-4.21-2.1-5.5-.121-3.116.156-4.441a18.655,18.655,0,0,1,1.735-3.811C719.083,525.9,721.908,528.715,722.81,528.68Z" transform="translate(-679.086 -498.305)" fill="#2f2e41"/>
    <path id="Path_964" data-name="Path 964" d="M672.641,460.347a.729.729,0,0,0,1.092.238L675.9,462l-.007-1.346-2.059-1.138a.733.733,0,0,0-1.2.83Z" transform="translate(-639.909 -435.78)" fill="#a0616a"/>
    <path id="Path_965" data-name="Path 965" d="M747.258,421.109a7.9,7.9,0,0,1-4.124-.847,1.941,1.941,0,0,1-.943-1.026l0-.006.078-.98.034-.076a1.552,1.552,0,0,0,.058-1.115l0-.008v-.008l.523-6.783,1.851-.606.539-.541,2.4-.035.334.677,1.89.712-.928,5.527-.445.767.179.836v.008l-.584,3.485h-.032Q747.647,421.109,747.258,421.109Z" transform="translate(-704.002 -389.581)" fill="#3f3d56"/>
    <path id="Path_966" data-name="Path 966" d="M696.814,429.651l-.878-.52-.055-.079a1.252,1.252,0,0,0-.991-.537h-.01l-1.209-.711.5-1.468,1.895.56,1.321-3.282a1.05,1.05,0,0,1,1.868-.16,1.085,1.085,0,0,1,.156.573v2.147l-.008.011Z" transform="translate(-659.346 -402.355)" fill="#3f3d56"/>
    <path id="Path_967" data-name="Path 967" d="M806.746,514.844a.729.729,0,0,1,.97-.555l1.644-2,.4,1.286-1.622,1.7a.733.733,0,0,1-1.39-.432Z" transform="translate(-763.41 -484.578)" fill="#a0616a"/>
    <path id="Path_968" data-name="Path 968" d="M816.278,432.861l-1.091-1.091.695-1.693,1.007-1.375a6.716,6.716,0,0,1-2.462-2.784l-.007-.012.145-1.138a1.462,1.462,0,0,1,2.688-.592l1.957,4.35-.022.033-1.574,2.683-.43.279Z" transform="translate(-770.486 -402.848)" fill="#3f3d56"/>
    <path id="Path_969" data-name="Path 969" d="M771.6,354.012a2,2,0,1,1-3.959-.539l0-.028a2,2,0,1,1,3.955.567Z" transform="translate(-727.409 -336.798)" fill="#a0616a"/>
    <path id="Path_970" data-name="Path 970" d="M769.455,348.88a1.208,1.208,0,0,0,.179-.663c-.029-.23-.255-.451-.477-.382-.133.041-.233.172-.372.179-.191.009-.3-.209-.36-.391l-.242-.74a2,2,0,0,1-1.662.376.949.949,0,0,1-.583-.341.475.475,0,0,1,.05-.625c.089-.07.207-.1.291-.172a.326.326,0,0,0-.261-.568l.609-.076-.182-.328a.6.6,0,0,0,.477.087c.164-.03.318-.1.479-.142a1.842,1.842,0,0,1,2.049.861.78.78,0,0,1,.85.246,1.24,1.24,0,0,1,.214.747,3.238,3.238,0,0,1-.33,1.5,1.227,1.227,0,0,1-.277.394.555.555,0,0,1-.446.146" transform="translate(-725.776 -330.637)" fill="#2f2e41"/>
    <path id="Path_971" data-name="Path 971" d="M404.348,301.919a3.1,3.1,0,0,0,.4,1.322,4.475,4.475,0,0,0,2.224,1.845,7.691,7.691,0,0,0,3.573.372c1.109-.1,2.207-.316,3.32-.362a23.123,23.123,0,0,1,2.581.062c1.666.118,3.324.338,4.972.6q.67.107,1.336.229a.66.66,0,0,1,.124.023c.008,0,.021,0,.028.005s-.054-.021-.013.012a1.232,1.232,0,0,1,.152.2l.609.783a3.7,3.7,0,0,0,.562.675,1.018,1.018,0,0,0,1.127.079,1.126,1.126,0,0,0,.419-.476,4.108,4.108,0,0,1,.5-.719,20.47,20.47,0,0,1,2.572-2.075,4.581,4.581,0,0,0,1.029-1.176,3.326,3.326,0,0,0,.425-1.32,4.417,4.417,0,0,0-.677-2.712,5.417,5.417,0,0,0-2.2-2.013,9.492,9.492,0,0,0-3.276-.9,29.689,29.689,0,0,0-3.619-.12q-2.029.023-4.051.178t-4.034.446a35.191,35.191,0,0,0-3.844.7,6.635,6.635,0,0,0-3.049,1.558A3.694,3.694,0,0,0,404.348,301.919Z" transform="translate(-393.039 -285.731)" fill="#8a57dc"/>
    <path id="Path_972" data-name="Path 972" d="M473.931,343.688a.4.4,0,0,1-.377-.448l.029-.225a.268.268,0,0,0-.087-.234l-.169-.151a.4.4,0,0,1,.191-.687l.223-.042a.268.268,0,0,0,.2-.155l.091-.207a.4.4,0,0,1,.712-.031l.109.2a.268.268,0,0,0,.208.138l.225.023a.4.4,0,0,1,.249.668l-.155.165a.267.267,0,0,0-.067.24l.048.222a.4.4,0,0,1-.558.443l-.2-.1a.267.267,0,0,0-.249.011l-.2.114A.4.4,0,0,1,473.931,343.688Z" transform="translate(-456.411 -327.2)" fill="#fff"/>
    <path id="Path_973" data-name="Path 973" d="M514.021,342.522a.4.4,0,0,1-.268-.119.412.412,0,0,1-.108-.344l.026-.206a.273.273,0,0,0-.089-.238l-.157-.14a.409.409,0,0,1-.143-.321.4.4,0,0,1,.323-.375l.22-.042a.273.273,0,0,0,.2-.158l.082-.186a.416.416,0,0,1,.351-.255.4.4,0,0,1,.37.206l.108.2a.273.273,0,0,0,.212.141l.209.021a.408.408,0,0,1,.3.175.4.4,0,0,1-.041.494l-.153.163a.273.273,0,0,0-.068.245l.044.2a.411.411,0,0,1-.072.344.4.4,0,0,1-.482.114l-.2-.1a.273.273,0,0,0-.254.011l-.194.113A.4.4,0,0,1,514.021,342.522Z" transform="translate(-493.311 -326.127)" fill="#fff"/>
    <path id="Path_974" data-name="Path 974" d="M554.225,342.353a.4.4,0,0,1-.377-.448l.029-.225a.268.268,0,0,0-.087-.234l-.169-.151a.4.4,0,0,1,.191-.687l.223-.042a.268.268,0,0,0,.2-.155l.091-.207a.4.4,0,0,1,.712-.031l.109.2a.268.268,0,0,0,.208.138l.225.023a.4.4,0,0,1,.249.668l-.155.165a.267.267,0,0,0-.067.24l.048.222a.4.4,0,0,1-.558.443l-.2-.1a.267.267,0,0,0-.249.011l-.2.114A.4.4,0,0,1,554.225,342.353Z" transform="translate(-530.316 -325.971)" fill="#fff"/>
    <path id="Path_975" data-name="Path 975" d="M593.325,341.292a.4.4,0,0,1-.377-.448l.029-.225a.268.268,0,0,0-.087-.234l-.169-.151a.4.4,0,0,1,.191-.687l.223-.042a.268.268,0,0,0,.2-.155l.091-.207a.4.4,0,0,1,.712-.031l.109.2a.268.268,0,0,0,.208.138l.225.023a.4.4,0,0,1,.249.668l-.155.165a.268.268,0,0,0-.067.24l.048.222a.4.4,0,0,1-.558.443l-.2-.1a.267.267,0,0,0-.249.011l-.2.114A.4.4,0,0,1,593.325,341.292Z" transform="translate(-566.305 -324.995)" opacity="0.2"/>
    <path id="Path_976" data-name="Path 976" d="M632.426,340.232a.4.4,0,0,1-.377-.448l.029-.225a.269.269,0,0,0-.087-.234l-.169-.151a.4.4,0,0,1,.191-.687l.223-.042a.268.268,0,0,0,.2-.155l.091-.207a.4.4,0,0,1,.712-.031l.109.2a.268.268,0,0,0,.208.138l.225.023a.4.4,0,0,1,.249.667l-.155.165a.268.268,0,0,0-.067.24l.048.222a.4.4,0,0,1-.558.443l-.2-.1a.267.267,0,0,0-.249.011l-.2.114A.4.4,0,0,1,632.426,340.232Z" transform="translate(-602.295 -324.019)" opacity="0.2"/>
    <path id="Path_977" data-name="Path 977" d="M850.918,668.739l.091-2.047a6.61,6.61,0,0,1,3.083-.78c-1.481,1.211-1.3,3.544-2.3,5.172a3.976,3.976,0,0,1-2.916,1.837l-1.239.759a6.662,6.662,0,0,1,1.4-5.4,6.432,6.432,0,0,1,1.183-1.1C850.521,667.965,850.918,668.739,850.918,668.739Z" transform="translate(-800.964 -625.979)" fill="#f2f2f2"/>
    <path id="Path_978" data-name="Path 978" d="M594.081,763.6H560.869a.095.095,0,0,1,0-.19h33.212a.095.095,0,0,1,0,.19Z" transform="translate(-537.023 -715.716)" fill="#cacaca"/>
  </g>
</svg>
