<svg xmlns="http://www.w3.org/2000/svg" width="74.98" height="47.88" viewBox="0 0 74.98 47.88">
  <g id="undraw_for_review_eqxk" transform="translate(-0.019 0)">
    <path id="Path_979" data-name="Path 979" d="M269.763,294.463a.991.991,0,0,1-.584-.193l-1.408-1.023a.682.682,0,0,0-.8,0l-1.408,1.023a.994.994,0,0,1-1.529-1.111l.538-1.655a.683.683,0,0,0-.249-.765l-1.408-1.023a.994.994,0,0,1,.584-1.8h1.74a.683.683,0,0,0,.651-.473l.538-1.655a.994.994,0,0,1,1.89,0l.538,1.655a.683.683,0,0,0,.651.473h1.74a.994.994,0,0,1,.584,1.8l-1.408,1.023a.683.683,0,0,0-.249.765l.538,1.655a.979.979,0,0,1-.361,1.111A.991.991,0,0,1,269.763,294.463Z" transform="translate(-262.483 -280.285)" fill="#8a57dc"/>
    <path id="Path_980" data-name="Path 980" d="M408.65,294.462a.99.99,0,0,1-.584-.193l-1.408-1.023a.684.684,0,0,0-.8,0l-1.408,1.023a.994.994,0,0,1-1.529-1.111l.538-1.655a.683.683,0,0,0-.249-.765l-1.407-1.023a.994.994,0,0,1,.584-1.8h1.74a.683.683,0,0,0,.651-.473l.538-1.655a.994.994,0,0,1,1.89,0l.538,1.655a.683.683,0,0,0,.651.473h1.74a.994.994,0,0,1,.584,1.8l-1.408,1.023a.683.683,0,0,0-.249.765l.538,1.655a.979.979,0,0,1-.361,1.111A.991.991,0,0,1,408.65,294.462Z" transform="translate(-385.753 -280.284)" fill="#8a57dc"/>
    <path id="Path_981" data-name="Path 981" d="M540.686,293.312a1.089,1.089,0,0,1-.641-.212,1.075,1.075,0,0,1-.4-1.22l.538-1.655a.585.585,0,0,0-.213-.656l-1.408-1.023a1.091,1.091,0,0,1,.641-1.974h1.74a.585.585,0,0,0,.558-.405l.538-1.655a1.091,1.091,0,0,1,2.076,0l.538,1.655a.585.585,0,0,0,.558.405h1.74a1.091,1.091,0,0,1,.642,1.974l-1.408,1.023a.585.585,0,0,0-.213.656l.538,1.655a1.091,1.091,0,0,1-1.68,1.22l-1.407-1.023a.585.585,0,0,0-.69,0l-1.407,1.023A1.088,1.088,0,0,1,540.686,293.312Zm2.394-1.852a1.089,1.089,0,0,1,.641.209l1.408,1.023a.587.587,0,0,0,.9-.656l-.538-1.655a1.089,1.089,0,0,1,.4-1.22l1.407-1.023a.587.587,0,0,0-.345-1.061h-1.74a1.089,1.089,0,0,1-1.038-.754l-.538-1.655a.587.587,0,0,0-1.116,0l-.538,1.655a1.088,1.088,0,0,1-1.038.754h-1.74a.587.587,0,0,0-.345,1.061l1.408,1.023a1.089,1.089,0,0,1,.4,1.22l-.538,1.655a.587.587,0,0,0,.9.656l1.408-1.023a1.089,1.089,0,0,1,.642-.209Z" transform="translate(-507.095 -279.077)" fill="#3f3d56"/>
    <path id="Path_982" data-name="Path 982" d="M735.006,400.085l-3.458,2.973-5.419,4.657-.732.63a.665.665,0,0,0-.232.458.673.673,0,0,0,.078.368.663.663,0,0,0,.082.119l.393.458.6.7.033.035a.671.671,0,0,0,.911.035l6.145-5.28,3.465-2.978a.671.671,0,0,0,.07-.944l-.209-.243-.781-.909a.669.669,0,0,0-.944-.072Z" transform="translate(-671.972 -381.094)" fill="#8a57dc"/>
    <circle id="Ellipse_106" data-name="Ellipse 106" cx="5.513" cy="5.513" r="5.513" transform="translate(60.156 3.247)" fill="#8a57dc"/>
    <path id="Path_983" data-name="Path 983" d="M850.618,526.076v12.671a.67.67,0,0,0,.669.669h1.52a.67.67,0,0,0,.67-.669V526.076a.67.67,0,0,0-.67-.669h-1.52A.67.67,0,0,0,850.618,526.076Z" transform="translate(-784.544 -491.536)" fill="#2f2e41"/>
    <path id="Path_984" data-name="Path 984" d="M819.334,526.076v12.671a.669.669,0,0,0,.67.669h1.52a.67.67,0,0,0,.67-.669V526.076a.67.67,0,0,0-.67-.669H820a.67.67,0,0,0-.67.67Z" transform="translate(-756.472 -491.536)" fill="#2f2e41"/>
    <path id="Path_985" data-name="Path 985" d="M792.083,405.246a3.81,3.81,0,0,1-3.711-4.658l1.72-7.539a4.244,4.244,0,0,1,8.489.008c0,.068.242,7.079.343,10.319a1.683,1.683,0,0,1-1.639,1.735l-5.078.133Z" transform="translate(-728.605 -370.844)" fill="#2f2e41"/>
    <path id="Path_986" data-name="Path 986" d="M788.918,316.552l.006-.206a1.7,1.7,0,0,1-.975-.22.633.633,0,0,1-.245-.466.362.362,0,0,1,.119-.3.624.624,0,0,1,.637-.006l.17.078-.327-2.389-.2.028.278,2.032a.727.727,0,0,0-.688.1.564.564,0,0,0-.192.463.838.838,0,0,0,.33.626A1.9,1.9,0,0,0,788.918,316.552Z" transform="translate(-729.07 -304.515)" fill="#2f2e41"/>
    <rect id="Rectangle_108" data-name="Rectangle 108" width="1.11" height="0.206" transform="translate(61.578 7.893)" fill="#2f2e41"/>
    <path id="Path_987" data-name="Path 987" d="M860.694,404.885l.19,4.556.3,7.139.04.965a.664.664,0,0,0,.215.466.674.674,0,0,0,.337.167.665.665,0,0,0,.144.009l.6-.025.917-.038.048,0a.671.671,0,0,0,.592-.693l-.335-8.1-.19-4.565a.671.671,0,0,0-.7-.641l-.32.013-1.2.049a.669.669,0,0,0-.642.7Z" transform="translate(-793.584 -384.551)" fill="#8a57dc"/>
    <path id="Path_988" data-name="Path 988" d="M856.2,398.625v3.5a.669.669,0,0,0,.652.669h2.49a.643.643,0,0,0,.118-.011.66.66,0,0,0,.249-.1.672.672,0,0,0,.3-.559v-3.5a1.908,1.908,0,0,0-1.906-1.906,1.861,1.861,0,0,0-.389.04A1.908,1.908,0,0,0,856.2,398.625Z" transform="translate(-789.548 -378.535)" fill="#2f2e41"/>
    <path id="Path_989" data-name="Path 989" d="M785.61,400.116a.661.661,0,0,0,.123.228l1.566,1.913a.556.556,0,0,0,.1.095.669.669,0,0,0,.847,0l2.71-2.218a1.906,1.906,0,0,0-2.414-2.949l-2.71,2.218A.673.673,0,0,0,785.61,400.116Z" transform="translate(-726.186 -378.581)" fill="#2f2e41"/>
    <path id="Path_990" data-name="Path 990" d="M792.935,243.691a6.008,6.008,0,0,1-2.925.688,2,2,0,0,1-1.827-1.445,2.407,2.407,0,0,1,.8-2.233,4.719,4.719,0,0,1,2.529-1.053,2.811,2.811,0,0,1,1.651.173,1.449,1.449,0,0,1,.825,1.036l.386-.1a1.32,1.32,0,0,1,.16-1.439,1.961,1.961,0,0,1,1.571-.725,6.011,6.011,0,0,1,3.443,1.213,7.586,7.586,0,0,1,2.321,2.6,6.248,6.248,0,0,1,.764,3.877,3.69,3.69,0,0,1-2.431,3.025.207.207,0,0,0,.11.4,4.008,4.008,0,0,0,2.6-2.768,6.339,6.339,0,0,0-.512-4.4,8,8,0,0,0-2.477-2.973,6.522,6.522,0,0,0-3.759-1.389,2.409,2.409,0,0,0-1.973.913,1.722,1.722,0,0,0-.173,1.876c.1.163.415.109.386-.1a2.119,2.119,0,0,0-2.207-1.667,5.671,5.671,0,0,0-1.684.249,4.855,4.855,0,0,0-1.419.649,2.992,2.992,0,0,0-1.368,2.484,2.249,2.249,0,0,0,1.653,2.093,5.385,5.385,0,0,0,3.666-.575.214.214,0,0,0,.145-.255A.208.208,0,0,0,792.935,243.691Z" transform="translate(-728.11 -238.173)" fill="#2f2e41"/>
    <path id="Path_991" data-name="Path 991" d="M652.189,406.22a1.088,1.088,0,0,1-.641-.212,1.075,1.075,0,0,1-.4-1.22l.538-1.655a.585.585,0,0,0-.213-.656l-1.408-1.023a1.091,1.091,0,0,1,.642-1.974h1.74a.585.585,0,0,0,.558-.405l.538-1.655a1.091,1.091,0,0,1,2.076,0l.538,1.655a.585.585,0,0,0,.558.405h1.74a1.091,1.091,0,0,1,.642,1.974l-1.407,1.023a.585.585,0,0,0-.213.656l.538,1.655a1.091,1.091,0,0,1-1.68,1.22l-1.408-1.023a.585.585,0,0,0-.69,0l-1.407,1.023A1.088,1.088,0,0,1,652.189,406.22Zm2.394-1.852a1.089,1.089,0,0,1,.641.209l1.408,1.023a.587.587,0,0,0,.9-.656L657,403.289a1.088,1.088,0,0,1,.4-1.22l1.407-1.023a.587.587,0,0,0-.345-1.061h-1.74a1.089,1.089,0,0,1-1.038-.754l-.538-1.655a.587.587,0,0,0-1.116,0l-.538,1.655a1.089,1.089,0,0,1-1.038.754h-1.74a.587.587,0,0,0-.345,1.061l1.408,1.023a1.089,1.089,0,0,1,.4,1.22l-.538,1.655a.587.587,0,0,0,.9.656l1.408-1.023a1.09,1.09,0,0,1,.641-.209Z" transform="translate(-606.057 -378.293)" fill="#3f3d56"/>
  </g>
</svg>
