<svg xmlns="http://www.w3.org/2000/svg" width="129.252" height="108.239" viewBox="0 0 129.252 108.239">
  <g id="undraw_feedback_re_urmj" transform="translate(0.023)">
    <path id="Path_943" data-name="Path 943" d="M375.934,198.957H262.189a.183.183,0,1,1,0-.365H375.934a.183.183,0,1,1,0,.365Z" transform="translate(-262.029 -192.382)" fill="#cacaca"/>
    <ellipse id="Ellipse_103" data-name="Ellipse 103" cx="1.965" cy="2.009" rx="1.965" ry="2.009" transform="translate(2.216 0)" fill="#3f3d56"/>
    <ellipse id="Ellipse_104" data-name="Ellipse 104" cx="1.965" cy="2.009" rx="1.965" ry="2.009" transform="translate(9.005 0)" fill="#3f3d56"/>
    <ellipse id="Ellipse_105" data-name="Ellipse 105" cx="1.965" cy="2.009" rx="1.965" ry="2.009" transform="translate(15.795 0)" fill="#3f3d56"/>
    <path id="Path_944" data-name="Path 944" d="M849.077,166.838h-4.823a.365.365,0,1,0,0,.73h4.823a.365.365,0,1,0,0-.73Z" transform="translate(-739.24 -166.34)" fill="#3f3d56"/>
    <path id="Path_945" data-name="Path 945" d="M849.077,174.458h-4.823a.365.365,0,1,0,0,.73h4.823a.365.365,0,1,0,0-.73Z" transform="translate(-739.24 -172.589)" fill="#3f3d56"/>
    <path id="Path_946" data-name="Path 946" d="M849.077,182.068h-4.823a.365.365,0,1,0,0,.73h4.823a.365.365,0,1,0,0-.73Z" transform="translate(-739.24 -178.83)" fill="#3f3d56"/>
    <path id="Path_947" data-name="Path 947" d="M380.513,234.906h-103.6a2.167,2.167,0,0,0-2.164,2.164v.349a2.167,2.167,0,0,0,2.164,2.164h103.6a2.167,2.167,0,0,0,2.164-2.164v-.349A2.167,2.167,0,0,0,380.513,234.906Z" transform="translate(-272.478 -222.164)" fill="#f0f0f0"/>
    <path id="Path_948" data-name="Path 948" d="M307.524,245.112h-9.862a.833.833,0,1,1,0-1.666h9.862A.833.833,0,0,1,307.524,245.112Z" transform="translate(-290.588 -229.168)" fill="#fff"/>
    <path id="Path_949" data-name="Path 949" d="M471.524,245.112h-9.862a.833.833,0,0,1,0-1.666h9.862A.833.833,0,0,1,471.524,245.112Z" transform="translate(-425.087 -229.168)" fill="#fff"/>
    <path id="Path_950" data-name="Path 950" d="M635.524,245.112h-9.862a.833.833,0,0,1,0-1.666h9.862A.833.833,0,0,1,635.524,245.112Z" transform="translate(-559.586 -229.168)" fill="#fff"/>
    <path id="Path_951" data-name="Path 951" d="M791.024,245.612h-9.862a.833.833,0,0,1,0-1.666h9.862A.833.833,0,0,1,791.024,245.612Z" transform="translate(-687.114 -229.578)" fill="#8a57dc"/>
    <rect id="Rectangle_105" data-name="Rectangle 105" width="0.36" height="4.677" transform="translate(88.164 12.742)" fill="#fff"/>
    <path id="Path_952" data-name="Path 952" d="M348.043,578.528H305.76a1.423,1.423,0,0,1-1.421-1.421v-6.193a1.423,1.423,0,0,1,1.421-1.421h42.282a1.423,1.423,0,0,1,1.421,1.421v6.193A1.423,1.423,0,0,1,348.043,578.528Z" transform="translate(-296.747 -496.564)" fill="#f0f0f0"/>
    <path id="Path_953" data-name="Path 953" d="M348.306,581.943H311.09a1.423,1.423,0,0,1-1.421-1.421v-4.275a1.422,1.422,0,0,1,1.421-1.421h40.365a1.422,1.422,0,0,1,1.421,1.421v1.125A4.576,4.576,0,0,1,348.306,581.943Z" transform="translate(-301.118 -500.938)" fill="#fff"/>
    <path id="Path_954" data-name="Path 954" d="M373.94,588.815H356.946a.367.367,0,0,1,0-.733H373.94a.367.367,0,0,1,0,.733Z" transform="translate(-339.59 -511.809)" fill="#e6e6e6"/>
    <path id="Path_955" data-name="Path 955" d="M382.543,597.148h-25.6a.366.366,0,1,1,0-.733h25.6a.366.366,0,1,1,0,.733Z" transform="translate(-339.59 -518.643)" fill="#e6e6e6"/>
    <path id="Path_956" data-name="Path 956" d="M335.892,348.86H287.682a1.453,1.453,0,0,1-1.451-1.451V310.557a1.453,1.453,0,0,1,1.451-1.451h48.211a1.452,1.452,0,0,1,1.451,1.451v36.852A1.453,1.453,0,0,1,335.892,348.86Z" transform="translate(-281.896 -283.016)" fill="#fff"/>
    <path id="Path_957" data-name="Path 957" d="M335.072,348.22H286.861a1.633,1.633,0,0,1-1.631-1.631V309.737a1.633,1.633,0,0,1,1.631-1.631h48.211a1.633,1.633,0,0,1,1.631,1.631v36.852A1.633,1.633,0,0,1,335.072,348.22Zm-48.211-39.754a1.273,1.273,0,0,0-1.271,1.271v36.852a1.273,1.273,0,0,0,1.271,1.271h48.211a1.273,1.273,0,0,0,1.271-1.271V309.737a1.273,1.273,0,0,0-1.271-1.271Z" transform="translate(-281.076 -282.196)" fill="#f0f0f0"/>
    <path id="Path_958" data-name="Path 958" d="M286.85,491.106v5.565a1.342,1.342,0,0,0,1.34,1.34H336.4a1.342,1.342,0,0,0,1.34-1.34v-5.565Z" transform="translate(-282.404 -432.278)" fill="#f0f0f0"/>
    <rect id="Rectangle_106" data-name="Rectangle 106" width="0.36" height="60.002" transform="translate(4.706 26.628) rotate(-57.371)" fill="#f0f0f0"/>
    <rect id="Rectangle_107" data-name="Rectangle 107" width="60.002" height="0.36" transform="translate(4.849 58.677) rotate(-32.629)" fill="#f0f0f0"/>
    <path id="Path_959" data-name="Path 959" d="M530.368,548.595H528.14l-1.061-8.6h3.29Z" transform="translate(-432.285 -442.861)" fill="#a0616a"/>
    <path id="Path_960" data-name="Path 960" d="M777.161,743.274l-2.378-.966-.07-.029-1.313.995a2.8,2.8,0,0,0-2.794,2.675c0,.039,0,.081,0,.122v.092h7.186v-2.889Z" transform="translate(-679.137 -638.269)" fill="#2f2e41"/>
    <path id="Path_961" data-name="Path 961" d="M489.194,539.286l-2.1.74-3.854-7.757,3.1-1.092Z" transform="translate(-396.33 -435.627)" fill="#a0616a"/>
    <path id="Path_962" data-name="Path 962" d="M752.025,735.668l-2.564-.122-.076,0-.909,1.374a2.8,2.8,0,0,0-1.747,3.451c.01.039.024.078.037.117l.031.086,6.779-2.385-.959-2.725Z" transform="translate(-659.459 -632.676)" fill="#2f2e41"/>
    <path id="Path_963" data-name="Path 963" d="M732.505,530.546c2.039-.079-.487,16.17-.487,16.17s.739,14.266.582,15.014a16.23,16.23,0,0,0-.02,2.768c-.4-.727-4.521-.178-4.521-.178l-.561-14.458-2.863-11.585-3.969,7.765,3.8,11.919s1.541,1.425,1.376,1.989-4.2,1.834-4.94,1.862-.407-.912-.443-1.839-3.525-9.517-4.752-12.439-.273-7.044.353-10.038,3.922-8.614,3.922-8.614C724.08,524.267,730.466,530.625,732.505,530.546Z" transform="translate(-633.634 -461.879)" fill="#2f2e41"/>
    <path id="Path_964" data-name="Path 964" d="M672.749,461.7a1.648,1.648,0,0,0,2.468.539l4.9,3.2-.015-3.042-4.654-2.572a1.656,1.656,0,0,0-2.7,1.876Z" transform="translate(-598.726 -406.168)" fill="#a0616a"/>
    <path id="Path_965" data-name="Path 965" d="M753.647,436.276c-5.057,0-7.843-1.012-9.323-1.916a4.388,4.388,0,0,1-2.131-2.32l0-.014.176-2.216.077-.172a3.508,3.508,0,0,0,.132-2.52l-.005-.017v-.018l1.182-15.334,4.184-1.371,1.217-1.223,5.419-.079.755,1.531,4.272,1.608-2.1,12.494-1.006,1.734.4,1.889,0,.017-1.32,7.879-.073,0Q754.528,436.277,753.647,436.276Z" transform="translate(-655.835 -365.004)" fill="#3f3d56"/>
    <path id="Path_966" data-name="Path 966" d="M700.776,438.092l-1.984-1.176-.124-.18a2.831,2.831,0,0,0-2.24-1.214H696.4l-2.732-1.606L694.8,430.6l4.283,1.265,2.986-7.419a2.374,2.374,0,0,1,4.223-.361,2.452,2.452,0,0,1,.354,1.3v4.855l-.018.024Z" transform="translate(-616.045 -376.386)" fill="#3f3d56"/>
    <path id="Path_967" data-name="Path 967" d="M806.761,518.067a1.647,1.647,0,0,1,2.192-1.255l3.716-4.524.9,2.906-3.667,3.851a1.656,1.656,0,0,1-3.141-.977Z" transform="translate(-708.768 -449.649)" fill="#a0616a"/>
    <path id="Path_968" data-name="Path 968" d="M818.621,444.672l-2.467-2.467,1.571-3.827L820,435.269c-2.426-1.181-4.246-3.978-5.566-6.294l-.015-.026.328-2.573a3.3,3.3,0,0,1,6.077-1.337l4.424,9.834-.05.074-3.558,6.065-.971.63Z" transform="translate(-715.073 -376.825)" fill="#3f3d56"/>
    <path id="Path_969" data-name="Path 969" d="M776.61,356.889a4.516,4.516,0,1,1-8.949-1.218l.009-.064a4.516,4.516,0,1,1,8.94,1.282Z" transform="translate(-676.69 -317.974)" fill="#a0616a"/>
    <path id="Path_970" data-name="Path 970" d="M774.006,353.725a2.732,2.732,0,0,0,.405-1.5c-.065-.521-.576-1.019-1.078-.864-.3.093-.527.389-.841.4-.432.021-.679-.473-.813-.884l-.547-1.672a4.525,4.525,0,0,1-3.758.849,2.145,2.145,0,0,1-1.319-.77,1.074,1.074,0,0,1,.113-1.414c.2-.159.467-.219.659-.388a.738.738,0,0,0-.589-1.284l1.378-.172-.411-.742a1.356,1.356,0,0,0,1.078.2c.371-.067.72-.219,1.082-.321A4.165,4.165,0,0,1,774,347.112a1.763,1.763,0,0,1,1.922.555,2.8,2.8,0,0,1,.483,1.688,7.32,7.32,0,0,1-.747,3.393,2.773,2.773,0,0,1-.627.89,1.255,1.255,0,0,1-1.007.33" transform="translate(-675.236 -312.484)" fill="#2f2e41"/>
    <path id="Path_971" data-name="Path 971" d="M404.354,309.067a7.014,7.014,0,0,0,.906,2.989,10.117,10.117,0,0,0,5.028,4.17,17.387,17.387,0,0,0,8.078.841c2.507-.216,4.988-.715,7.5-.818a52.265,52.265,0,0,1,5.835.139c3.765.267,7.515.763,11.24,1.364q1.514.241,3.021.518a1.493,1.493,0,0,1,.281.052c.018.008.048,0,.064.012s-.123-.048-.03.028a2.789,2.789,0,0,1,.344.443L448,320.576a8.37,8.37,0,0,0,1.271,1.525,2.3,2.3,0,0,0,2.547.178,2.546,2.546,0,0,0,.947-1.076,9.285,9.285,0,0,1,1.126-1.626c1.637-1.91,3.912-3.084,5.815-4.691a10.354,10.354,0,0,0,2.326-2.658,7.519,7.519,0,0,0,.961-2.985,9.985,9.985,0,0,0-1.529-6.13,12.245,12.245,0,0,0-4.971-4.55,21.458,21.458,0,0,0-7.405-2.029,67.122,67.122,0,0,0-8.181-.271q-4.588.051-9.159.4t-9.119,1.007a79.554,79.554,0,0,0-8.689,1.592,15,15,0,0,0-6.893,3.522A8.35,8.35,0,0,0,404.354,309.067Z" transform="translate(-378.762 -272.472)" fill="#8a57dc"/>
    <path id="Path_972" data-name="Path 972" d="M474.86,346.7a.9.9,0,0,1-.853-1.012l.065-.508a.607.607,0,0,0-.2-.528l-.382-.341a.9.9,0,0,1,.431-1.552l.5-.1a.606.606,0,0,0,.441-.351l.206-.469a.9.9,0,0,1,1.609-.07l.246.449a.606.606,0,0,0,.47.312l.509.051a.9.9,0,0,1,.564,1.509l-.351.373a.6.6,0,0,0-.151.543l.108.5a.9.9,0,0,1-1.261,1l-.463-.218a.6.6,0,0,0-.563.024l-.443.258A.9.9,0,0,1,474.86,346.7Z" transform="translate(-435.226 -309.422)" fill="#fff"/>
    <path id="Path_973" data-name="Path 973" d="M514.952,345.53a.907.907,0,0,1-.6-.27.931.931,0,0,1-.244-.778l.059-.466a.618.618,0,0,0-.2-.538l-.354-.316a.923.923,0,0,1-.324-.725.9.9,0,0,1,.731-.848l.5-.094a.617.617,0,0,0,.45-.358l.185-.421a.94.94,0,0,1,.792-.577.893.893,0,0,1,.835.465l.243.444a.617.617,0,0,0,.479.318l.472.048a.923.923,0,0,1,.688.4.9.9,0,0,1-.093,1.116l-.347.369a.617.617,0,0,0-.154.553l.1.462a.928.928,0,0,1-.163.777.9.9,0,0,1-1.091.258l-.458-.216a.617.617,0,0,0-.573.025l-.437.255A.9.9,0,0,1,514.952,345.53Z" transform="translate(-468.105 -308.466)" fill="#fff"/>
    <path id="Path_974" data-name="Path 974" d="M555.155,345.36a.9.9,0,0,1-.853-1.012l.065-.508a.607.607,0,0,0-.2-.528l-.382-.341a.9.9,0,0,1,.431-1.552l.5-.1a.605.605,0,0,0,.441-.351l.206-.469a.9.9,0,0,1,1.609-.07l.246.449a.606.606,0,0,0,.47.312l.509.051a.9.9,0,0,1,.564,1.509l-.351.373a.6.6,0,0,0-.151.543l.108.5a.9.9,0,0,1-1.261,1l-.463-.218a.6.6,0,0,0-.564.024l-.443.258A.9.9,0,0,1,555.155,345.36Z" transform="translate(-501.077 -308.327)" fill="#fff"/>
    <path id="Path_975" data-name="Path 975" d="M594.255,344.3a.9.9,0,0,1-.853-1.012l.065-.508a.607.607,0,0,0-.2-.528l-.382-.341a.9.9,0,0,1,.431-1.552l.5-.1a.606.606,0,0,0,.441-.351l.207-.469a.9.9,0,0,1,1.609-.07l.246.449a.605.605,0,0,0,.47.312l.51.051a.9.9,0,0,1,.564,1.509l-.351.373a.6.6,0,0,0-.151.543l.108.5a.9.9,0,0,1-1.261,1l-.463-.218a.6.6,0,0,0-.563.024l-.443.258A.9.9,0,0,1,594.255,344.3Z" transform="translate(-533.144 -307.457)" opacity="0.2"/>
    <path id="Path_976" data-name="Path 976" d="M633.357,343.239a.9.9,0,0,1-.853-1.012l.065-.508a.607.607,0,0,0-.2-.528l-.382-.341a.9.9,0,0,1,.431-1.552l.5-.1a.605.605,0,0,0,.441-.351l.207-.469a.9.9,0,0,1,1.609-.07l.246.449a.606.606,0,0,0,.47.312l.51.051a.9.9,0,0,1,.564,1.509l-.351.373a.605.605,0,0,0-.151.543l.108.5a.9.9,0,0,1-1.261,1l-.463-.218a.6.6,0,0,0-.563.024l-.443.258A.9.9,0,0,1,633.357,343.239Z" transform="translate(-565.212 -306.587)" opacity="0.2"/>
    <path id="Path_977" data-name="Path 977" d="M855.185,672.3l.206-4.626a14.942,14.942,0,0,1,6.97-1.764c-3.347,2.737-2.929,8.012-5.2,11.692a8.988,8.988,0,0,1-6.591,4.153l-2.8,1.715a15.06,15.06,0,0,1,3.174-12.2,14.55,14.55,0,0,1,2.674-2.484C854.288,670.554,855.185,672.3,855.185,672.3Z" transform="translate(-742.229 -575.639)" fill="#f2f2f2"/>
    <path id="Path_978" data-name="Path 978" d="M636.069,763.835h-75.08a.214.214,0,0,1,0-.428h75.08a.214.214,0,0,1,0,.428Z" transform="translate(-507.054 -655.596)" fill="#cacaca"/>
  </g>
</svg>
