<svg xmlns="http://www.w3.org/2000/svg" width="129.897" height="82.949" viewBox="0 0 129.897 82.949">
  <g id="undraw_for_review_eqxk" transform="translate(-0.019 0)">
    <path id="Path_979" data-name="Path 979" d="M275.081,301.317a1.716,1.716,0,0,1-1.012-.335l-2.438-1.772a1.182,1.182,0,0,0-1.394,0l-2.438,1.772a1.721,1.721,0,0,1-2.649-1.924l.931-2.866a1.183,1.183,0,0,0-.431-1.326l-2.438-1.772a1.721,1.721,0,0,1,1.012-3.114h3.014a1.183,1.183,0,0,0,1.128-.819l.931-2.866a1.721,1.721,0,0,1,3.274,0l.931,2.866a1.183,1.183,0,0,0,1.128.819h3.014a1.721,1.721,0,0,1,1.012,3.114l-2.438,1.772a1.183,1.183,0,0,0-.431,1.326l.931,2.866a1.7,1.7,0,0,1-.625,1.924A1.716,1.716,0,0,1,275.081,301.317Z" transform="translate(-262.483 -276.755)" fill="#8a57dc"/>
    <path id="Path_980" data-name="Path 980" d="M413.968,301.317a1.716,1.716,0,0,1-1.012-.335l-2.438-1.772a1.184,1.184,0,0,0-1.394,0l-2.438,1.771a1.721,1.721,0,0,1-2.649-1.924l.931-2.867a1.183,1.183,0,0,0-.431-1.326l-2.438-1.772a1.721,1.721,0,0,1,1.012-3.114h3.014a1.183,1.183,0,0,0,1.128-.819l.931-2.866a1.721,1.721,0,0,1,3.274,0l.931,2.866a1.183,1.183,0,0,0,1.128.819h3.014a1.721,1.721,0,0,1,1.012,3.114l-2.438,1.772a1.183,1.183,0,0,0-.431,1.326l.931,2.867a1.7,1.7,0,0,1-.625,1.924A1.716,1.716,0,0,1,413.968,301.317Z" transform="translate(-374.314 -276.754)" fill="#8a57dc"/>
    <path id="Path_981" data-name="Path 981" d="M542.569,300.31a1.886,1.886,0,0,1-1.111-.368,1.863,1.863,0,0,1-.687-2.114l.932-2.866a1.014,1.014,0,0,0-.369-1.136l-2.438-1.772a1.891,1.891,0,0,1,1.111-3.421h3.014a1.013,1.013,0,0,0,.966-.7l.932-2.867a1.891,1.891,0,0,1,3.6,0l.931,2.867a1.014,1.014,0,0,0,.966.7h3.014a1.891,1.891,0,0,1,1.111,3.421l-2.438,1.772a1.013,1.013,0,0,0-.369,1.136l.932,2.866a1.891,1.891,0,0,1-2.91,2.114l-2.438-1.772a1.014,1.014,0,0,0-1.195,0l-2.438,1.772A1.885,1.885,0,0,1,542.569,300.31Zm4.147-3.209a1.887,1.887,0,0,1,1.111.362l2.439,1.772a1.016,1.016,0,0,0,1.564-1.136l-.931-2.866a1.886,1.886,0,0,1,.687-2.114l2.438-1.772a1.016,1.016,0,0,0-.6-1.838h-3.014a1.886,1.886,0,0,1-1.8-1.307l-.932-2.866a1.016,1.016,0,0,0-1.933,0l-.931,2.866a1.886,1.886,0,0,1-1.8,1.307h-3.014a1.016,1.016,0,0,0-.6,1.838l2.438,1.772a1.886,1.886,0,0,1,.687,2.114L541.6,298.1a1.016,1.016,0,0,0,1.564,1.136l2.439-1.772a1.888,1.888,0,0,1,1.111-.362Z" transform="translate(-484.389 -275.648)" fill="#3f3d56"/>
    <path id="Path_982" data-name="Path 982" d="M742.215,400.2l-5.99,5.15-9.389,8.068-1.269,1.091a1.152,1.152,0,0,0-.4.793,1.166,1.166,0,0,0,.135.637,1.142,1.142,0,0,0,.142.206l.681.793,1.036,1.205c.019.021.037.041.058.061a1.162,1.162,0,0,0,1.578.061l10.646-9.148,6-5.16a1.162,1.162,0,0,0,.122-1.636l-.362-.421-1.353-1.576a1.159,1.159,0,0,0-1.636-.125Z" transform="translate(-633.027 -367.304)" fill="#8a57dc"/>
    <circle id="Ellipse_106" data-name="Ellipse 106" cx="9.551" cy="9.551" r="9.551" transform="translate(104.203 5.624)" fill="#8a57dc"/>
    <path id="Path_983" data-name="Path 983" d="M850.618,526.566v21.951a1.161,1.161,0,0,0,1.16,1.16h2.634a1.161,1.161,0,0,0,1.16-1.16V526.566a1.161,1.161,0,0,0-1.16-1.16h-2.634A1.161,1.161,0,0,0,850.618,526.566Z" transform="translate(-736.162 -466.728)" fill="#2f2e41"/>
    <path id="Path_984" data-name="Path 984" d="M819.334,526.566v21.951a1.16,1.16,0,0,0,1.16,1.16h2.634a1.161,1.161,0,0,0,1.16-1.16V526.566a1.161,1.161,0,0,0-1.16-1.16h-2.634a1.16,1.16,0,0,0-1.16,1.16Z" transform="translate(-710.444 -466.728)" fill="#2f2e41"/>
    <path id="Path_985" data-name="Path 985" d="M794.871,417.282a6.6,6.6,0,0,1-6.429-8.069l2.979-13.061a7.353,7.353,0,0,1,14.706.014c0,.118.42,12.264.594,17.877a2.916,2.916,0,0,1-2.839,3.005l-8.8.23C795.013,417.281,794.942,417.282,794.871,417.282Z" transform="translate(-684.913 -357.683)" fill="#2f2e41"/>
    <path id="Path_986" data-name="Path 986" d="M789.96,319.121l.01-.357a2.951,2.951,0,0,1-1.689-.381,1.1,1.1,0,0,1-.425-.808.627.627,0,0,1,.206-.517,1.081,1.081,0,0,1,1.1-.01l.3.135-.566-4.138-.354.048.482,3.52a1.26,1.26,0,0,0-1.192.172.976.976,0,0,0-.332.8,1.451,1.451,0,0,0,.571,1.084A3.285,3.285,0,0,0,789.96,319.121Z" transform="translate(-686.289 -298.268)" fill="#2f2e41"/>
    <rect id="Rectangle_108" data-name="Rectangle 108" width="1.922" height="0.357" transform="translate(106.666 13.673)" fill="#2f2e41"/>
    <path id="Path_987" data-name="Path 987" d="M860.694,405.441l.328,7.893.512,12.368.07,1.672a1.151,1.151,0,0,0,.373.807,1.166,1.166,0,0,0,.583.289,1.149,1.149,0,0,0,.25.016l1.044-.043,1.588-.066c.029,0,.055,0,.084-.007a1.162,1.162,0,0,0,1.026-1.2l-.58-14.024-.328-7.909a1.162,1.162,0,0,0-1.208-1.11l-.555.023-2.075.086a1.158,1.158,0,0,0-1.112,1.206Z" transform="translate(-744.445 -370.215)" fill="#8a57dc"/>
    <path id="Path_988" data-name="Path 988" d="M856.2,400.02v6.067a1.159,1.159,0,0,0,1.13,1.158l.03,0h4.283a1.112,1.112,0,0,0,.205-.02,1.143,1.143,0,0,0,.432-.171,1.165,1.165,0,0,0,.523-.969V400.02a3.305,3.305,0,0,0-3.3-3.3,3.219,3.219,0,0,0-.674.07A3.306,3.306,0,0,0,856.2,400.02Z" transform="translate(-740.747 -365.216)" fill="#2f2e41"/>
    <path id="Path_989" data-name="Path 989" d="M785.631,402.58a1.144,1.144,0,0,0,.212.394l2.712,3.314a.967.967,0,0,0,.166.164,1.159,1.159,0,0,0,1.467,0l4.7-3.842A3.3,3.3,0,0,0,790.7,397.5l-4.7,3.842A1.166,1.166,0,0,0,785.631,402.58Z" transform="translate(-682.697 -365.271)" fill="#2f2e41"/>
    <path id="Path_990" data-name="Path 990" d="M796.751,247.732a10.408,10.408,0,0,1-5.068,1.192,3.462,3.462,0,0,1-3.165-2.5,4.17,4.17,0,0,1,1.387-3.869,8.176,8.176,0,0,1,4.382-1.824,4.87,4.87,0,0,1,2.861.3,2.51,2.51,0,0,1,1.429,1.8l.669-.181a2.286,2.286,0,0,1,.277-2.493,3.4,3.4,0,0,1,2.722-1.256,10.413,10.413,0,0,1,5.965,2.1,13.142,13.142,0,0,1,4.021,4.511,10.825,10.825,0,0,1,1.323,6.717,6.393,6.393,0,0,1-4.212,5.241.359.359,0,0,0,.191.692,6.943,6.943,0,0,0,4.5-4.8,10.983,10.983,0,0,0-.887-7.63,13.855,13.855,0,0,0-4.291-5.15,11.3,11.3,0,0,0-6.512-2.407,4.173,4.173,0,0,0-3.418,1.581,2.984,2.984,0,0,0-.3,3.25c.166.282.719.19.669-.181-.252-1.88-2.071-2.846-3.823-2.888a9.824,9.824,0,0,0-2.917.431,8.411,8.411,0,0,0-2.458,1.124,5.184,5.184,0,0,0-2.37,4.3,3.9,3.9,0,0,0,2.864,3.626c2.165.686,4.36-.167,6.351-1a.371.371,0,0,0,.251-.442A.361.361,0,0,0,796.751,247.732Z" transform="translate(-684.459 -238.173)" fill="#2f2e41"/>
    <path id="Path_991" data-name="Path 991" d="M654.072,413.218a1.886,1.886,0,0,1-1.111-.368,1.863,1.863,0,0,1-.687-2.114l.932-2.866a1.014,1.014,0,0,0-.369-1.136l-2.438-1.772a1.891,1.891,0,0,1,1.111-3.421h3.014a1.014,1.014,0,0,0,.966-.7l.931-2.866a1.891,1.891,0,0,1,3.6,0l.931,2.866a1.014,1.014,0,0,0,.967.7h3.014a1.891,1.891,0,0,1,1.111,3.421l-2.438,1.772a1.014,1.014,0,0,0-.369,1.136l.931,2.866a1.891,1.891,0,0,1-2.91,2.114l-2.438-1.772a1.014,1.014,0,0,0-1.195,0l-2.438,1.772A1.885,1.885,0,0,1,654.072,413.218Zm4.147-3.209a1.887,1.887,0,0,1,1.111.362l2.439,1.772a1.016,1.016,0,0,0,1.564-1.136l-.931-2.866a1.886,1.886,0,0,1,.687-2.114l2.438-1.772a1.016,1.016,0,0,0-.6-1.838h-3.014a1.886,1.886,0,0,1-1.8-1.307l-.932-2.866a1.016,1.016,0,0,0-1.933,0l-.931,2.866a1.886,1.886,0,0,1-1.8,1.307h-3.014a1.016,1.016,0,0,0-.6,1.838l2.438,1.772a1.886,1.886,0,0,1,.687,2.114l-.932,2.866a1.016,1.016,0,0,0,1.564,1.136l2.439-1.771a1.888,1.888,0,0,1,1.111-.362Z" transform="translate(-574.164 -364.836)" fill="#3f3d56"/>
  </g>
</svg>
