<svg xmlns="http://www.w3.org/2000/svg" width="145.371" height="97.343" viewBox="0 0 145.371 97.343">
  <g id="undraw_reviews_lp8w" transform="translate(0)">
    <path id="Path_992" data-name="Path 992" d="M851.189,448.2a1.924,1.924,0,0,1,.294-.063l3.97-8.066-1.212-1.817,2.5-2.187,3.146,3.85-6.408,9.326a1.9,1.9,0,1,1-2.293-1.043Z" transform="translate(-731.867 -389.924)" fill="#a0616a"/>
    <path id="Path_993" data-name="Path 993" d="M861.021,420.053a.817.817,0,0,1-.184.145l-4.062,2.355a.815.815,0,0,1-1.146-.357l-1.975-4.173a.811.811,0,0,1,.279-1.023l2.518-1.713a.816.816,0,0,1,1.037.1L861,418.916a.816.816,0,0,1,.016,1.136Z" transform="translate(-734.922 -372.792)" fill="#ccc"/>
    <path id="Path_994" data-name="Path 994" d="M702.632,478.331l-2.144.583-3.271-7.993,3.165-.861Z" transform="translate(-570.831 -384.852)" fill="#a0616a"/>
    <path id="Path_995" data-name="Path 995" d="M2.7,0H6.985V2.7H0A2.7,2.7,0,0,1,2.7,0Z" transform="translate(125.355 94.575) rotate(-15.221)" fill="#2f2e41"/>
    <path id="Path_996" data-name="Path 996" d="M611.149,486h-2.223l-1.057-8.572h3.28Z" transform="translate(-497.679 -390.883)" fill="#a0616a"/>
    <path id="Path_997" data-name="Path 997" d="M592.755,521.212h4.286v2.7h-6.984A2.7,2.7,0,0,1,592.755,521.212Z" transform="translate(-483.096 -426.731)" fill="#2f2e41"/>
    <circle id="Ellipse_107" data-name="Ellipse 107" cx="4.452" cy="4.452" r="4.452" transform="translate(111.358 30.744)" fill="#a0616a"/>
    <path id="Path_998" data-name="Path 998" d="M804.914,517.76h-3.037a.818.818,0,0,1-.814-.766c-.905-14.386-.376-24.705,1.665-32.475a.866.866,0,0,1,.033-.1l.162-.406a.812.812,0,0,1,.758-.513h6.245a.814.814,0,0,1,.619.285l.848.99c.017.019.032.039.047.059,3.825,5.334,7.253,15.762,11.223,29.779a.813.813,0,0,1-.536,1l-3.264,1.044a.82.82,0,0,1-.984-.423l-8.469-17.566a.634.634,0,0,0-1.2.19l-2.489,18.2A.819.819,0,0,1,804.914,517.76Z" transform="translate(-691.581 -428.756)" fill="#2f2e41"/>
    <path id="Path_999" data-name="Path 999" d="M819.235,416.465h-.026l-7.586-.24a.813.813,0,0,1-.785-.717c-.962-7.784,1.676-9.869,2.854-10.4a.628.628,0,0,0,.365-.5l.1-.816a.813.813,0,0,1,.161-.4,9.322,9.322,0,0,1,5.711-3.4.815.815,0,0,1,.952.7l.153,1.172a.646.646,0,0,0,.129.307c3.854,5.038-.44,12.476-1.339,13.916h0A.817.817,0,0,1,819.235,416.465Z" transform="translate(-699.765 -360.374)" fill="#ccc"/>
    <path id="Path_1000" data-name="Path 1000" d="M824.128,351.761a17.725,17.725,0,0,0-3.536-3.7,10.5,10.5,0,0,0-3.754-1.986,5.822,5.822,0,0,0-4.163.371c-1.259.669-2.56,2-2.568,3.424,0,.458.114,1.078.565,1l.131.017,3.264-.659,1.39,4.825a.932.932,0,0,0,1.511.742c.05-.021.484-.994.484-.994a.181.181,0,0,1,.312-.052l.257.322a.363.363,0,0,0,.423.108l5.323-2.222c.245-.1.519-.236.59-.492A.879.879,0,0,0,824.128,351.761Z" transform="translate(-699.335 -316.064)" fill="#2f2e41"/>
    <path id="Path_1001" data-name="Path 1001" d="M752.72,716.863H698.157a.181.181,0,0,1,0-.363H752.72a.181.181,0,0,1,0,.363Z" transform="translate(-607.53 -619.52)" fill="#3f3d56"/>
    <path id="Path_1002" data-name="Path 1002" d="M817.568,537.885a.58.58,0,0,1-.342-.113l-.825-.6a.4.4,0,0,0-.472,0l-.825.6a.582.582,0,0,1-.9-.651l.315-.97a.4.4,0,0,0-.146-.449l-.825-.6a.582.582,0,0,1,.342-1.054h1.02a.4.4,0,0,0,.381-.277l.315-.97a.582.582,0,0,1,1.108,0l.315.97a.4.4,0,0,0,.382.277h1.02a.582.582,0,0,1,.343,1.054l-.825.6a.4.4,0,0,0-.146.449l.315.97a.573.573,0,0,1-.212.651A.581.581,0,0,1,817.568,537.885Z" transform="translate(-701.958 -468.791)" fill="#8a57dc"/>
    <path id="Path_1003" data-name="Path 1003" d="M840.221,461.673a1.947,1.947,0,0,0,.255-2.975l1.409-17.016-4.2.577-.08,16.533a1.958,1.958,0,0,0,2.611,2.881Z" transform="translate(-721.458 -394.519)" fill="#a0616a"/>
    <path id="Path_1004" data-name="Path 1004" d="M840.846,422.395a.815.815,0,0,1-.232-.034l-4.5-1.325a.815.815,0,0,1-.53-1.077l1.667-4.306a.811.811,0,0,1,.934-.5l2.976.647a.816.816,0,0,1,.642.82l-.138,4.984A.817.817,0,0,1,840.846,422.395Z" transform="translate(-720.144 -372.781)" fill="#ccc"/>
    <path id="Path_1005" data-name="Path 1005" d="M277.333,457.059h-77.04a1.27,1.27,0,0,1-1.269-1.269V432.769a1.27,1.27,0,0,1,1.269-1.269h77.04a1.27,1.27,0,0,1,1.269,1.269V455.79A1.27,1.27,0,0,1,277.333,457.059Zm-77.04-25.2a.907.907,0,0,0-.906.906V455.79a.908.908,0,0,0,.906.906h77.04a.908.908,0,0,0,.906-.906V432.769a.907.907,0,0,0-.906-.906Z" transform="translate(-199.024 -386.182)" fill="#3f3d56"/>
    <path id="Path_1006" data-name="Path 1006" d="M368.447,595.619a.711.711,0,0,1-.419-.139l-1.011-.734a.49.49,0,0,0-.578,0l-1.011.734a.714.714,0,0,1-1.1-.8l.386-1.188a.491.491,0,0,0-.179-.55l-1.011-.734a.714.714,0,0,1,.419-1.291h1.25a.49.49,0,0,0,.467-.34l.386-1.188a.714.714,0,0,1,1.357,0l.386,1.188a.49.49,0,0,0,.467.34h1.25a.713.713,0,0,1,.419,1.291l-1.011.734a.491.491,0,0,0-.179.55l.386,1.188a.7.7,0,0,1-.259.8A.712.712,0,0,1,368.447,595.619Z" transform="translate(-333.466 -515.049)" fill="#8a57dc"/>
    <path id="Path_1007" data-name="Path 1007" d="M424.955,595.619a.711.711,0,0,1-.419-.139l-1.011-.734a.49.49,0,0,0-.578,0l-1.011.734a.714.714,0,0,1-1.1-.8l.386-1.188a.491.491,0,0,0-.179-.55l-1.011-.734a.714.714,0,0,1,.419-1.291H421.7a.49.49,0,0,0,.468-.34l.386-1.188a.714.714,0,0,1,1.357,0l.386,1.188a.49.49,0,0,0,.467.34h1.249a.714.714,0,0,1,.419,1.291l-1.011.734a.491.491,0,0,0-.179.55l.386,1.188a.7.7,0,0,1-.259.8A.711.711,0,0,1,424.955,595.619Z" transform="translate(-379.731 -515.049)" fill="#8a57dc"/>
    <path id="Path_1008" data-name="Path 1008" d="M481.464,595.619a.71.71,0,0,1-.419-.139l-1.011-.734a.491.491,0,0,0-.578,0l-1.011.734a.714.714,0,0,1-1.1-.8l.386-1.188a.491.491,0,0,0-.179-.55l-1.011-.734a.714.714,0,0,1,.419-1.291h1.249a.49.49,0,0,0,.468-.34l.386-1.188a.714.714,0,0,1,1.357,0l.386,1.188a.49.49,0,0,0,.467.34h1.25a.714.714,0,0,1,.419,1.291l-1.011.734a.491.491,0,0,0-.179.55l.386,1.188a.7.7,0,0,1-.259.8A.71.71,0,0,1,481.464,595.619Z" transform="translate(-425.996 -515.049)" fill="#8a57dc"/>
    <path id="Path_1009" data-name="Path 1009" d="M537.972,595.62a.713.713,0,0,1-.419-.139l-1.011-.734a.49.49,0,0,0-.578,0l-1.011.734a.714.714,0,0,1-1.1-.8l.386-1.188a.49.49,0,0,0-.179-.55l-1.011-.734a.714.714,0,0,1,.419-1.291h1.25a.49.49,0,0,0,.467-.339l.386-1.188a.714.714,0,0,1,1.357,0l.386,1.188a.49.49,0,0,0,.468.339h1.249a.714.714,0,0,1,.419,1.291l-1.011.734a.491.491,0,0,0-.179.55l.386,1.188a.7.7,0,0,1-.259.8A.712.712,0,0,1,537.972,595.62Z" transform="translate(-472.261 -515.049)" fill="#8a57dc"/>
    <path id="Path_1010" data-name="Path 1010" d="M590.725,595.373a.783.783,0,0,1-.461-.152.772.772,0,0,1-.285-.877l.386-1.188a.421.421,0,0,0-.153-.471l-1.011-.734a.784.784,0,0,1,.461-1.418h1.249a.42.42,0,0,0,.4-.291l.386-1.188a.784.784,0,0,1,1.491,0l.386,1.188a.42.42,0,0,0,.4.291h1.25a.784.784,0,0,1,.461,1.418l-1.011.734a.42.42,0,0,0-.153.471l.386,1.188a.784.784,0,0,1-1.206.876l-1.011-.735a.421.421,0,0,0-.5,0l-1.011.735A.782.782,0,0,1,590.725,595.373Zm1.719-1.33a.784.784,0,0,1,.461.15l1.011.734a.421.421,0,0,0,.648-.471l-.386-1.188a.782.782,0,0,1,.285-.876l1.011-.734a.421.421,0,0,0-.247-.762h-1.249a.782.782,0,0,1-.746-.542l-.386-1.188a.421.421,0,0,0-.8,0l-.386,1.188a.782.782,0,0,1-.745.542h-1.25a.421.421,0,0,0-.248.762l1.011.734a.782.782,0,0,1,.285.876l-.386,1.188a.421.421,0,0,0,.648.471l1.011-.734A.782.782,0,0,1,592.445,594.043Z" transform="translate(-518.209 -514.732)" fill="#3f3d56"/>
    <path id="Path_1011" data-name="Path 1011" d="M248.7,461.5a1.178,1.178,0,1,0,0,2.357h59.638a1.178,1.178,0,0,0,0-2.357Z" transform="translate(-238.732 -410.744)" fill="#ccc"/>
    <path id="Path_1012" data-name="Path 1012" d="M248.7,495.5a1.178,1.178,0,0,0,0,2.357h59.638a1.178,1.178,0,0,0,0-2.357Z" transform="translate(-238.732 -438.581)" fill="#ccc"/>
    <path id="Path_1013" data-name="Path 1013" d="M248.7,529.5a1.178,1.178,0,1,0,0,2.356h59.638a1.178,1.178,0,0,0,0-2.356Z" transform="translate(-238.732 -466.418)" fill="#ccc"/>
    <path id="Path_1014" data-name="Path 1014" d="M248.7,461.5a1.178,1.178,0,1,0,0,2.357h59.638a1.178,1.178,0,0,0,0-2.357Z" transform="translate(-238.732 -410.744)" fill="#ccc"/>
    <path id="Path_1015" data-name="Path 1015" d="M248.7,495.5a1.178,1.178,0,0,0,0,2.357h59.638a1.178,1.178,0,0,0,0-2.357Z" transform="translate(-238.732 -438.581)" fill="#ccc"/>
    <path id="Path_1016" data-name="Path 1016" d="M248.7,529.5a1.178,1.178,0,1,0,0,2.356h59.638a1.178,1.178,0,0,0,0-2.356Z" transform="translate(-238.732 -466.418)" fill="#ccc"/>
    <path id="Path_1017" data-name="Path 1017" d="M277.333,207.059h-77.04a1.27,1.27,0,0,1-1.269-1.269V182.769a1.27,1.27,0,0,1,1.269-1.269h77.04a1.27,1.27,0,0,1,1.269,1.269V205.79A1.27,1.27,0,0,1,277.333,207.059Zm-77.04-25.2a.907.907,0,0,0-.906.906V205.79a.908.908,0,0,0,.906.906h77.04a.908.908,0,0,0,.906-.906V182.769a.907.907,0,0,0-.906-.906Z" transform="translate(-199.024 -181.5)" fill="#3f3d56"/>
    <path id="Path_1018" data-name="Path 1018" d="M368.447,345.62a.712.712,0,0,1-.419-.139l-1.011-.734a.49.49,0,0,0-.578,0l-1.011.734a.714.714,0,0,1-1.1-.8l.386-1.188a.491.491,0,0,0-.179-.55l-1.011-.734a.713.713,0,0,1,.419-1.291H365.2a.491.491,0,0,0,.468-.34l.386-1.188a.714.714,0,0,1,1.357,0l.386,1.188a.49.49,0,0,0,.467.34h1.249a.714.714,0,0,1,.42,1.291l-1.011.734a.491.491,0,0,0-.179.55l.386,1.188a.7.7,0,0,1-.259.8A.712.712,0,0,1,368.447,345.62Z" transform="translate(-333.466 -310.367)" fill="#8a57dc"/>
    <path id="Path_1019" data-name="Path 1019" d="M424.955,345.62a.712.712,0,0,1-.419-.139l-1.011-.734a.49.49,0,0,0-.578,0l-1.011.734a.714.714,0,0,1-1.1-.8l.386-1.188a.49.49,0,0,0-.179-.55l-1.011-.734a.714.714,0,0,1,.42-1.291H421.7a.491.491,0,0,0,.468-.34l.386-1.188a.714.714,0,0,1,1.357,0l.386,1.188a.49.49,0,0,0,.468.34h1.249a.714.714,0,0,1,.42,1.291l-1.011.734a.49.49,0,0,0-.179.55l.386,1.188a.7.7,0,0,1-.259.8A.711.711,0,0,1,424.955,345.62Z" transform="translate(-379.731 -310.367)" fill="#8a57dc"/>
    <path id="Path_1020" data-name="Path 1020" d="M481.464,345.62a.711.711,0,0,1-.419-.139l-1.011-.734a.491.491,0,0,0-.578,0l-1.011.734a.714.714,0,0,1-1.1-.8l.386-1.188a.491.491,0,0,0-.178-.55l-1.011-.734a.714.714,0,0,1,.419-1.291h1.249a.49.49,0,0,0,.468-.34l.386-1.188a.714.714,0,0,1,1.357,0l.386,1.188a.49.49,0,0,0,.467.34h1.249a.714.714,0,0,1,.42,1.291l-1.011.734a.491.491,0,0,0-.179.55l.386,1.188a.7.7,0,0,1-.259.8A.713.713,0,0,1,481.464,345.62Z" transform="translate(-425.996 -310.367)" fill="#8a57dc"/>
    <path id="Path_1021" data-name="Path 1021" d="M590.725,345.373a.781.781,0,0,1-.461-.152.772.772,0,0,1-.285-.876l.386-1.188a.42.42,0,0,0-.153-.471l-1.011-.735a.784.784,0,0,1,.461-1.418h1.249a.42.42,0,0,0,.4-.291l.386-1.188a.784.784,0,0,1,1.491,0l.386,1.188a.42.42,0,0,0,.4.291h1.25a.784.784,0,0,1,.461,1.418l-1.011.735a.42.42,0,0,0-.153.471l.386,1.188a.784.784,0,0,1-1.206.876l-1.011-.734a.421.421,0,0,0-.5,0l-1.011.734A.78.78,0,0,1,590.725,345.373Zm1.719-1.33a.782.782,0,0,1,.461.15l1.011.734a.421.421,0,0,0,.648-.471l-.386-1.188a.781.781,0,0,1,.285-.876l1.011-.734a.421.421,0,0,0-.247-.762h-1.249a.782.782,0,0,1-.746-.542l-.386-1.188a.421.421,0,0,0-.8,0l-.386,1.188a.781.781,0,0,1-.745.542h-1.25a.421.421,0,0,0-.248.762l1.011.734a.782.782,0,0,1,.285.876l-.386,1.188a.421.421,0,0,0,.648.471l1.011-.734A.781.781,0,0,1,592.445,344.043Z" transform="translate(-518.209 -310.05)" fill="#3f3d56"/>
    <path id="Path_1022" data-name="Path 1022" d="M533.726,345.212a.782.782,0,0,1-.461-.152.772.772,0,0,1-.285-.876l.386-1.188a.42.42,0,0,0-.153-.471l-1.01-.734a.784.784,0,0,1,.461-1.418h1.249a.42.42,0,0,0,.4-.291l.386-1.188a.784.784,0,0,1,1.491,0l.386,1.188a.42.42,0,0,0,.4.291h1.25a.784.784,0,0,1,.461,1.418l-1.011.734a.42.42,0,0,0-.153.471l.386,1.188a.784.784,0,0,1-1.206.876l-1.011-.734a.42.42,0,0,0-.5,0l-1.011.734A.781.781,0,0,1,533.726,345.212Zm1.719-1.33a.781.781,0,0,1,.461.15l1.011.734a.421.421,0,0,0,.648-.471l-.386-1.188a.782.782,0,0,1,.285-.876l1.011-.734a.421.421,0,0,0-.248-.762h-1.25a.781.781,0,0,1-.745-.542L535.846,339a.421.421,0,0,0-.8,0l-.386,1.188a.782.782,0,0,1-.745.542h-1.249a.421.421,0,0,0-.248.762l1.011.734a.782.782,0,0,1,.285.876l-.386,1.188a.421.421,0,0,0,.648.471l1.011-.734A.784.784,0,0,1,535.445,343.882Z" transform="translate(-471.542 -309.918)" fill="#3f3d56"/>
    <path id="Path_1023" data-name="Path 1023" d="M248.7,211.5a1.178,1.178,0,0,0,0,2.357h59.638a1.178,1.178,0,0,0,0-2.357Z" transform="translate(-238.732 -206.062)" fill="#ccc"/>
    <path id="Path_1024" data-name="Path 1024" d="M248.7,245.5a1.178,1.178,0,0,0,0,2.357h59.638a1.178,1.178,0,0,0,0-2.357Z" transform="translate(-238.732 -233.899)" fill="#ccc"/>
    <path id="Path_1025" data-name="Path 1025" d="M248.7,279.5a1.178,1.178,0,1,0,0,2.356h59.638a1.178,1.178,0,1,0,0-2.356Z" transform="translate(-238.732 -261.735)" fill="#ccc"/>
    <path id="Path_1026" data-name="Path 1026" d="M248.7,211.5a1.178,1.178,0,0,0,0,2.357h59.638a1.178,1.178,0,0,0,0-2.357Z" transform="translate(-238.732 -206.062)" fill="#ccc"/>
    <path id="Path_1027" data-name="Path 1027" d="M248.7,245.5a1.178,1.178,0,0,0,0,2.357h59.638a1.178,1.178,0,0,0,0-2.357Z" transform="translate(-238.732 -233.899)" fill="#ccc"/>
    <path id="Path_1028" data-name="Path 1028" d="M248.7,279.5a1.178,1.178,0,1,0,0,2.356h59.638a1.178,1.178,0,1,0,0-2.356Z" transform="translate(-238.732 -261.735)" fill="#ccc"/>
  </g>
</svg>
