<svg xmlns="http://www.w3.org/2000/svg" width="17.083" height="17.921" viewBox="0 0 17.083 17.921">
  <path id="Path_778" data-name="Path 778" d="M386.931,72.743a1.816,1.816,0,0,1,1.82,1.808v2.563a.393.393,0,0,0,.391.391h1.589A2.257,2.257,0,0,0,393,75.265v-7.27a1.4,1.4,0,0,0-.556-1.091l-5.494-4.382a2.013,2.013,0,0,0-2.509,0L378.984,66.9a1.4,1.4,0,0,0-.567,1.107v7.256a2.257,2.257,0,0,0,2.269,2.24h1.6a.4.4,0,0,0,.409-.4.673.673,0,0,1,.016-.143V74.55a1.818,1.818,0,0,1,1.808-1.808Zm3.8,6.012h-1.6a1.639,1.639,0,0,1-1.626-1.641V74.55a.565.565,0,0,0-.57-.558h-2.4a.564.564,0,0,0-.562.558v2.555a.588.588,0,0,1-.026.179,1.658,1.658,0,0,1-1.649,1.47h-1.6a3.508,3.508,0,0,1-3.519-3.49V68a2.628,2.628,0,0,1,1.049-2.086l5.446-4.371a3.259,3.259,0,0,1,4.066,0l5.485,4.375a2.633,2.633,0,0,1,1.037,2.066v7.279A3.508,3.508,0,0,1,390.731,78.755Z" transform="translate(-377.167 -60.833)" fill-rule="evenodd"/>
</svg>
