<svg xmlns="http://www.w3.org/2000/svg" width="14" height="14" viewBox="0 0 14 14">
  <path id="Icon_awesome-linkedin" data-name="Icon awesome-linkedin" d="M13,1H1A1,1,0,0,0,0,2.009V13.991A1,1,0,0,0,1,15H13a1.007,1.007,0,0,0,1-1.009V2.009A1.007,1.007,0,0,0,13,1ZM4.231,13H2.156V6.319H4.234V13ZM3.194,5.406A1.2,1.2,0,1,1,4.4,4.2,1.2,1.2,0,0,1,3.194,5.406ZM12.009,13H9.934V9.75c0-.775-.016-1.772-1.078-1.772-1.081,0-1.247.844-1.247,1.716V13H5.534V6.319H7.525v.912h.028A2.186,2.186,0,0,1,9.519,6.153c2.1,0,2.491,1.384,2.491,3.184Z" transform="translate(0 -1)" fill="#8a57dc"/>
</svg>
