<svg xmlns="http://www.w3.org/2000/svg" width="67.458" height="72.995" viewBox="0 0 67.458 72.995">
  <g id="_297653" data-name="297653" transform="translate(0 1278.932)">
    <path id="Path_886" data-name="Path 886" d="M651.588-1278.776a3.971,3.971,0,0,0-.514,1.616,18.1,18.1,0,0,0-.474,4.85A36.262,36.262,0,0,0,652.365-1260a31.5,31.5,0,0,0,4,8.083,18.342,18.342,0,0,0,5.432,5.655,5.059,5.059,0,0,0,2.885,1.085,1.527,1.527,0,0,0,1.285-.525,2.257,2.257,0,0,0,.765-1.959,4.937,4.937,0,0,0-.931-2.879,23.689,23.689,0,0,0-2.862-3.319,45.021,45.021,0,0,1-5.358-6.34,34.148,34.148,0,0,1-2.97-5.706,20.54,20.54,0,0,1-2.439-9.088c-.154-2.039-.188-2.422-.268-3.113-.051-.411-.108-.771-.126-.811S651.68-1278.907,651.588-1278.776Z" transform="translate(-613.438 0)" fill="#c0c5ce"/>
    <path id="Path_887" data-name="Path 887" d="M952.618-1240.96a7.435,7.435,0,0,0-.657.5,18.362,18.362,0,0,0-3.364,3.433,45.366,45.366,0,0,0-4.621,7.22,30.327,30.327,0,0,0-2.748,8.111,27.39,27.39,0,0,0-.628,6.369,17.079,17.079,0,0,0,.251,3.69c.388,2.365,1.24,4.427,2.182,5.278a1.731,1.731,0,0,0,1.319.543,2.359,2.359,0,0,0,1.394-.394,3.924,3.924,0,0,0,1.651-2.89c.143-.948.114-1.491-.234-4.255-.474-3.77-.565-4.729-.657-6.729a23.151,23.151,0,0,1,.485-6.152c.074-.314.251-1.148.394-1.856,1.062-5.278,1.354-6.038,3.89-10.053.446-.708.971-1.554,1.171-1.885s.406-.685.468-.788l.114-.183-.166.006A.9.9,0,0,0,952.618-1240.96Z" transform="translate(-886.873 -35.765)" fill="#c0c5ce"/>
    <path id="Path_888" data-name="Path 888" d="M441.364-1052.6a5.956,5.956,0,0,0-3.781,2.445,7.021,7.021,0,0,0-.823,1.782,3.858,3.858,0,0,0-.16,1.4,4.209,4.209,0,0,0,.131,1.371,5.933,5.933,0,0,0,3.364,3.941,5.115,5.115,0,0,0,2.268.417,4.623,4.623,0,0,0,2.3-.48,5.7,5.7,0,0,0,3.307-4.307,5.236,5.236,0,0,0-.457-3.267,5.317,5.317,0,0,0-1.24-1.759,5.815,5.815,0,0,0-2.61-1.434A5.947,5.947,0,0,0,441.364-1052.6Z" transform="translate(-411.661 -213.342)" fill="#c0c5ce"/>
    <path id="Path_889" data-name="Path 889" d="M339.379-902.75a2.369,2.369,0,0,0-.348.091,8.889,8.889,0,0,0-.794,1.245,3.171,3.171,0,0,0-.131,1.851c.411,1.742,2.245,4.073,5.038,6.4A32.351,32.351,0,0,0,351.506-888a25.377,25.377,0,0,0,2.97.954c.645.183,2.331.657,3.741,1.063a18.691,18.691,0,0,0,3.421.851l.177-.006-.228-.2a11.925,11.925,0,0,0-2.142-1.251,47.518,47.518,0,0,1-6.152-3.65A34.117,34.117,0,0,1,348.1-895.1c-.263-.314-1.1-1.394-1.856-2.4a37.236,37.236,0,0,0-3.016-3.747,5.342,5.342,0,0,0-2.2-1.514A4.678,4.678,0,0,0,339.379-902.75Z" transform="translate(-318.719 -354.623)" fill="#c0c5ce"/>
    <path id="Path_890" data-name="Path 890" d="M11.767-614.816a3.193,3.193,0,0,0-1.879,1.656,7.452,7.452,0,0,0-.628,1.925,17.89,17.89,0,0,0-.12,3.593c.074,1.628.006,4.918-.143,6.917a29.118,29.118,0,0,1-.737,4.512c-.257,1-1.794,5.706-2.2,6.74a22.6,22.6,0,0,1-1.7,3.45c-.308.474-.583.84-2.051,2.725C1.1-581.737,0-580.287,0-580.241c0,.023.114.017.257-.006a3.25,3.25,0,0,0,1.131-.64,17.384,17.384,0,0,0,3.644-3.084,42.739,42.739,0,0,0,6.62-8.871,34.51,34.51,0,0,0,3.342-9.025,27.871,27.871,0,0,0,.72-5.969,12.767,12.767,0,0,0-.377-3.433,5.467,5.467,0,0,0-1.342-3.056c-.354-.365-.48-.457-.737-.531A2.652,2.652,0,0,0,11.767-614.816Z" transform="translate(0 -626.061)" fill="#c0c5ce"/>
    <path id="Path_891" data-name="Path 891" d="M501.515-606.678a5.834,5.834,0,0,0-4.312,3.364,4.875,4.875,0,0,0-.5,2.29,4.392,4.392,0,0,0,.131,1.257,6.114,6.114,0,0,0,1.365,2.582,5.712,5.712,0,0,0,8.322.177,6.112,6.112,0,0,0,1.559-3.027,7.984,7.984,0,0,0-.023-2.148,5.971,5.971,0,0,0-1.537-2.839A5.889,5.889,0,0,0,501.515-606.678Z" transform="translate(-468.329 -633.788)" fill="#c0c5ce"/>
    <path id="Path_892" data-name="Path 892" d="M293.444-593.921a2.765,2.765,0,0,0-1.188.668,2.187,2.187,0,0,0-.565,1.371c-.166,1.548.5,3.113,2.045,4.832.263.291,1.142,1.239,1.948,2.1,4.244,4.535,5.432,6.2,7.111,9.939.246.548.685,1.508.977,2.13a23.43,23.43,0,0,1,1.394,3.5,28.192,28.192,0,0,1,1.034,7.163c.034.52.08,1.057.114,1.2a3.352,3.352,0,0,0,.28.914,18.394,18.394,0,0,0,.748-2.913,17.869,17.869,0,0,0,.286-4.141,45.148,45.148,0,0,0-.3-5.769,32.723,32.723,0,0,0-4.747-13.332c-2.325-3.736-4.507-5.94-7.157-7.237A2.735,2.735,0,0,0,293.444-593.921Z" transform="translate(-275.006 -645.836)" fill="#c0c5ce"/>
    <path id="Path_893" data-name="Path 893" d="M732.662-435.551c-.154.029-.445.091-.646.143s-.377.091-.388.091a6.7,6.7,0,0,0-.531,1.2c-.417,1.262.246,2.816,1.913,4.484A30.193,30.193,0,0,0,742.5-423.8c2.57,1.068,3.987,1.377,9.242,2.028.788.1,1.851.24,2.371.314a11.067,11.067,0,0,0,1.988.223c.086-.011.251-.04.371-.057s.211-.057.211-.08a18.889,18.889,0,0,0-2.713-1.148c-1.417-.5-3.393-1.217-3.913-1.428a31.4,31.4,0,0,1-6.363-3.65,38.823,38.823,0,0,1-4.49-4,19.8,19.8,0,0,0-3.9-3.319,3.865,3.865,0,0,0-1.868-.651A5.32,5.32,0,0,0,732.662-435.551Z" transform="translate(-689.223 -795.181)" fill="#c0c5ce"/>
  </g>
</svg>
