<svg xmlns="http://www.w3.org/2000/svg" width="77.808" height="65.599" viewBox="0 0 77.808 65.599">
  <g id="layer1" transform="translate(-292.872 57.181)">
    <ellipse id="path2223" cx="7.072" cy="7.072" rx="7.072" ry="7.072" transform="translate(324.246 -57.181)" fill="#c0c5ce"/>
    <path id="path2225" d="M293.156-3.767S321.364-7.157,324-6.78c2.871.409,4.469,1.507,4.469,3.13s-1.441,2.9-4.324,3.245c-2.57.31-30.992-3.13-30.992-3.361Z" transform="translate(0 -34.349)" fill="#c0c5ce" stroke="#c0c5ce" stroke-width="0.569" fill-rule="evenodd"/>
    <path id="path2227" d="M424.7,15.163s19.385-6.675,11.527-10.379c-5.4-2.546-8.5-3.587-9.272-4.356-1.511-1.5-2.281-2.717-1.2-4.417s2.678-2.26,5.339-1.073c1.264.564,14.857,8.009,12.822,13.526-1.782,4.833-19.149,6.586-19.221,6.7Z" transform="translate(-89.699 -35.11)" fill="#c0c5ce" stroke="#c0c5ce" stroke-width="0.634" fill-rule="evenodd"/>
    <path id="path2280" d="M336.913,65.626c10.078,2.263,15.24,1.581,16.574-.375s.817-3.741-1.9-5.2-4.9-2.161-10.83-1.853-7.769,1.063-9.091,3.605a11.566,11.566,0,0,0-.953,8.2c.7,2.7,5.054,16.637,5.054,16.637Z" transform="translate(-25.365 -78.632)" fill="#c0c5ce" stroke="#c0c5ce" stroke-width="1.836" fill-rule="evenodd"/>
    <path id="path2282" d="M412.729,65.752c-1.429,2.02.418,5.061,1.867,6.242,3.88,3.164,29.282,15.759,36.746,18.4,0,0-23.865-20.335-30.548-24.424-4.091-2.5-6.611-2.273-8.065-.217Z" transform="translate(-81.186 -82.737)" fill="#c0c5ce" stroke="#c0c5ce" stroke-width="1.615" fill-rule="evenodd"/>
  </g>
</svg>
