<svg xmlns="http://www.w3.org/2000/svg" width="21" height="19.5" viewBox="0 0 21 19.5">
  <path id="Icon_ionic-ios-star-outline" data-name="Icon ionic-ios-star-outline" d="M21.7,9h-6.9l-2.1-6.253a.759.759,0,0,0-1.425,0L9.192,9H2.25a.752.752,0,0,0-.75.75.551.551,0,0,0,.014.127.721.721,0,0,0,.314.53L7.5,14.4,5.32,20.723a.752.752,0,0,0,.258.844A.725.725,0,0,0,6,21.75a.919.919,0,0,0,.469-.169L12,17.639l5.531,3.942A.878.878,0,0,0,18,21.75a.673.673,0,0,0,.417-.183.743.743,0,0,0,.258-.844L16.5,14.4l5.62-4.031.136-.117a.786.786,0,0,0,.244-.5A.794.794,0,0,0,21.7,9Zm-5.962,4.336a1.316,1.316,0,0,0-.478,1.491l1.411,4.111a.188.188,0,0,1-.286.216l-3.628-2.587A1.31,1.31,0,0,0,12,16.322a1.285,1.285,0,0,0-.759.244L7.608,19.148a.188.188,0,0,1-.286-.216l1.411-4.111a1.321,1.321,0,0,0-.483-1.5l-3.8-2.677a.188.188,0,0,1,.108-.342H9.188a1.311,1.311,0,0,0,1.242-.9l1.387-4.134a.189.189,0,0,1,.356,0l1.387,4.134a1.311,1.311,0,0,0,1.242.9h4.561a.185.185,0,0,1,.108.337Z" transform="translate(-1.5 -2.25)"/>
</svg>
