<svg xmlns="http://www.w3.org/2000/svg" width="19.5" height="19.505" viewBox="0 0 19.5 19.505">
  <path id="Icon_ionic-md-trophy" data-name="Icon ionic-md-trophy" d="M18.375,4.922c.042-1.266.009-2.625,0-2.672H5.592c0,.047-.037,1.406,0,2.672H2.25a13.607,13.607,0,0,0,.984,5.939,8.283,8.283,0,0,0,2.752,3.3,32.639,32.639,0,0,0,4.889,2.7v1.327c-.216.469-1.1,1.322-3.9,1.322H6v2.25H18V19.5H16.8c-2.845,0-3.516-.9-3.67-1.322V16.856a52.341,52.341,0,0,0,4.894-2.7,9.673,9.673,0,0,0,2.752-3.3,16.652,16.652,0,0,0,.98-5.944ZM5.137,9.933a7.727,7.727,0,0,1-.736-2.9H5.747c.033.281.066.53.108.764a20.761,20.761,0,0,0,1.2,4.523A6.724,6.724,0,0,1,5.137,9.933Zm13.725,0a6.771,6.771,0,0,1-1.95,2.4A20.471,20.471,0,0,0,18.122,7.8c.038-.234.075-.483.108-.764H19.6A7.728,7.728,0,0,1,18.862,9.933Z" transform="translate(-2.25 -2.25)"/>
</svg>
