<svg xmlns="http://www.w3.org/2000/svg" width="76.436" height="73.186" viewBox="0 0 76.436 73.186">
  <g id="Taekwondo_pictogram" transform="translate(-6.229 -13.039)">
    <path id="Path_870" data-name="Path 870" d="M180.158,16.859c2.581-2.249,5.975-3.138,9.261-3.75a8.216,8.216,0,0,1-2.131,1.807c-1.864,1.368-3.79,2.846-4.818,4.98a34.531,34.531,0,0,0-1.667,3.392c-.193,1.528.985,2.714,1.841,3.829a34.146,34.146,0,0,0,2.921,3.023c.789,1.029.22,2.448-.621,3.256a2.93,2.93,0,0,1-2.419.438c-1.725-.408-2.916-1.862-3.894-3.244-1.425-2.025-2.781-4.318-2.8-6.867C176.2,20.946,178.12,18.651,180.158,16.859Z" transform="translate(-124.274)" fill="none" stroke="#000" stroke-miterlimit="10" stroke-width="0.1"/>
    <path id="Path_871" data-name="Path 871" d="M180.158,16.859c2.581-2.249,5.975-3.138,9.261-3.75a8.216,8.216,0,0,1-2.131,1.807c-1.864,1.368-3.79,2.846-4.818,4.98a34.531,34.531,0,0,0-1.667,3.392c-.193,1.528.985,2.714,1.841,3.829a34.146,34.146,0,0,0,2.921,3.023c.789,1.029.22,2.448-.621,3.256a2.93,2.93,0,0,1-2.419.438c-1.725-.408-2.916-1.862-3.894-3.244-1.425-2.025-2.781-4.318-2.8-6.867C176.2,20.946,178.12,18.651,180.158,16.859Z" transform="translate(-124.274)" fill="#c0c5ce"/>
    <path id="Path_872" data-name="Path 872" d="M109.84,30.744a30.177,30.177,0,0,1,3.672-2.858,5.945,5.945,0,0,1-.55,1.1c-4.331,6.635-8.787,13.189-13.041,19.875a74.548,74.548,0,0,1-4.967,5.988,7.232,7.232,0,0,1-5.8,2.638c-.949.211-1.485-.74-1.686-1.518a5.478,5.478,0,0,1,.59-3.513,15.584,15.584,0,0,1,3.795-4.739c1.886-1.762,3.614-3.684,5.508-5.438C101.485,38.392,105.665,34.57,109.84,30.744Z" transform="translate(-59.433 -10.831)" fill="none" stroke="#000" stroke-miterlimit="10" stroke-width="0.1"/>
    <path id="Path_873" data-name="Path 873" d="M109.84,30.744a30.177,30.177,0,0,1,3.672-2.858,5.945,5.945,0,0,1-.55,1.1c-4.331,6.635-8.787,13.189-13.041,19.875a74.548,74.548,0,0,1-4.967,5.988,7.232,7.232,0,0,1-5.8,2.638c-.949.211-1.485-.74-1.686-1.518a5.478,5.478,0,0,1,.59-3.513,15.584,15.584,0,0,1,3.795-4.739c1.886-1.762,3.614-3.684,5.508-5.438C101.485,38.392,105.665,34.57,109.84,30.744Z" transform="translate(-59.433 -10.831)" fill="#c0c5ce"/>
    <path id="Path_874" data-name="Path 874" d="M71.833,45.753c.759-.759,1.162-1.819,2.034-2.469-.479,1.554-1.241,3-1.868,4.5-1.463,3.13-3.814,6.077-7.113,7.364a16.931,16.931,0,0,1-6.8.991A8.716,8.716,0,0,1,52,54.361c-.893-.733-1.948-1.628-1.9-2.9.027-.834.874-1.255,1.542-1.54,1.14-.372,2.248.212,3.277.64,3.412,1.26,7.318,1.858,10.779.435C68.317,50.057,70.011,47.724,71.833,45.753Z" transform="translate(-32.115 -22.118)" fill="none" stroke="#000" stroke-miterlimit="10" stroke-width="0.1"/>
    <path id="Path_875" data-name="Path 875" d="M71.833,45.753c.759-.759,1.162-1.819,2.034-2.469-.479,1.554-1.241,3-1.868,4.5-1.463,3.13-3.814,6.077-7.113,7.364a16.931,16.931,0,0,1-6.8.991A8.716,8.716,0,0,1,52,54.361c-.893-.733-1.948-1.628-1.9-2.9.027-.834.874-1.255,1.542-1.54,1.14-.372,2.248.212,3.277.64,3.412,1.26,7.318,1.858,10.779.435C68.317,50.057,70.011,47.724,71.833,45.753Z" transform="translate(-32.115 -22.118)" fill="#c0c5ce"/>
    <path id="Path_876" data-name="Path 876" d="M8.4,75.819a2.639,2.639,0,0,1,3.021.263,13.32,13.32,0,0,1,.953,3.253c.33,3.419.479,6.86,1.034,10.254,1.166.139,2.122-.66,3.163-1.035,2.073-.888,4.335-1.175,6.429-2a21.963,21.963,0,0,1,3.839-1.139,3.779,3.779,0,0,1-.974,1.292c-3.39,3.054-7.208,5.837-11.673,7.043a6.242,6.242,0,0,1-2.444.074,9.332,9.332,0,0,1-2.887-3.274A20.649,20.649,0,0,1,6.287,80.371,5.814,5.814,0,0,1,8.4,75.819Z" transform="translate(0 -45.688)" fill="none" stroke="#000" stroke-miterlimit="10" stroke-width="0.1"/>
    <path id="Path_877" data-name="Path 877" d="M8.4,75.819a2.639,2.639,0,0,1,3.021.263,13.32,13.32,0,0,1,.953,3.253c.33,3.419.479,6.86,1.034,10.254,1.166.139,2.122-.66,3.163-1.035,2.073-.888,4.335-1.175,6.429-2a21.963,21.963,0,0,1,3.839-1.139,3.779,3.779,0,0,1-.974,1.292c-3.39,3.054-7.208,5.837-11.673,7.043a6.242,6.242,0,0,1-2.444.074,9.332,9.332,0,0,1-2.887-3.274A20.649,20.649,0,0,1,6.287,80.371,5.814,5.814,0,0,1,8.4,75.819Z" transform="translate(0 -45.688)" fill="#c0c5ce"/>
    <path id="Path_878" data-name="Path 878" d="M249.4,92.5c.155-1.148.787-2.51,2.086-2.646a5.04,5.04,0,0,1,3.788,1.589,13.25,13.25,0,0,1,2.365,4.043,22.1,22.1,0,0,1,1.645,6.915c.085,2-1.274,3.621-2.507,5.041a12.589,12.589,0,0,1-5.056,3.442,30.093,30.093,0,0,1-4.411,1.251,16.861,16.861,0,0,1,2.138-2.39,25.231,25.231,0,0,0,4.754-6.247,3.644,3.644,0,0,0,0-2.973,19.3,19.3,0,0,0-3.72-5.892A3.708,3.708,0,0,1,249.4,92.5Z" transform="translate(-176.668 -56.237)" fill="none" stroke="#000" stroke-miterlimit="10" stroke-width="0.1"/>
    <path id="Path_879" data-name="Path 879" d="M249.4,92.5c.155-1.148.787-2.51,2.086-2.646a5.04,5.04,0,0,1,3.788,1.589,13.25,13.25,0,0,1,2.365,4.043,22.1,22.1,0,0,1,1.645,6.915c.085,2-1.274,3.621-2.507,5.041a12.589,12.589,0,0,1-5.056,3.442,30.093,30.093,0,0,1-4.411,1.251,16.861,16.861,0,0,1,2.138-2.39,25.231,25.231,0,0,0,4.754-6.247,3.644,3.644,0,0,0,0-2.973,19.3,19.3,0,0,0-3.72-5.892A3.708,3.708,0,0,1,249.4,92.5Z" transform="translate(-176.668 -56.237)" fill="#c0c5ce"/>
    <path id="Path_880" data-name="Path 880" d="M62.152,138.683a6.95,6.95,0,0,1,3.076-4.109,3.521,3.521,0,0,1,2.62,1.868,12.329,12.329,0,0,1,1.246,6.268q-.429,4.513-.718,9.038-.982,9.02-1.977,18.039c-.265,1.669-.523,3.344-.9,4.994a3.343,3.343,0,0,1-.388-1.259c-1.006-7.684-1.875-15.386-2.989-23.054a31.082,31.082,0,0,1-.332-5.359C61.842,142.965,61.605,140.782,62.152,138.683Z" transform="translate(-40.682 -89.031)" fill="none" stroke="#000" stroke-miterlimit="10" stroke-width="0.1"/>
    <path id="Path_881" data-name="Path 881" d="M62.152,138.683a6.95,6.95,0,0,1,3.076-4.109,3.521,3.521,0,0,1,2.62,1.868,12.329,12.329,0,0,1,1.246,6.268q-.429,4.513-.718,9.038-.982,9.02-1.977,18.039c-.265,1.669-.523,3.344-.9,4.994a3.343,3.343,0,0,1-.388-1.259c-1.006-7.684-1.875-15.386-2.989-23.054a31.082,31.082,0,0,1-.332-5.359C61.842,142.965,61.605,140.782,62.152,138.683Z" transform="translate(-40.682 -89.031)" fill="#c0c5ce"/>
    <path id="Path_882" data-name="Path 882" d="M123.247,159.5a7.22,7.22,0,0,1,6.3-2.936c1.227,1.048,1.28,2.877.88,4.33a15.618,15.618,0,0,1-3.516,6.041c-2.723,2.981-5.222,6.161-8.01,9.083-3.626,3.923-7.242,7.856-10.9,11.75-1.184,1.018-2.135,2.33-3.5,3.119a7.718,7.718,0,0,1,.469-1.057q5.748-10.022,11.388-20.105A58.2,58.2,0,0,1,123.247,159.5Z" transform="translate(-71.995 -105.12)" fill="none" stroke="#000" stroke-miterlimit="10" stroke-width="0.1"/>
    <path id="Path_883" data-name="Path 883" d="M123.247,159.5a7.22,7.22,0,0,1,6.3-2.936c1.227,1.048,1.28,2.877.88,4.33a15.618,15.618,0,0,1-3.516,6.041c-2.723,2.981-5.222,6.161-8.01,9.083-3.626,3.923-7.242,7.856-10.9,11.75-1.184,1.018-2.135,2.33-3.5,3.119a7.718,7.718,0,0,1,.469-1.057q5.748-10.022,11.388-20.105A58.2,58.2,0,0,1,123.247,159.5Z" transform="translate(-71.995 -105.12)" fill="#c0c5ce"/>
    <path id="Path_884" data-name="Path 884" d="M209.341,157.828c.3-.489.437-1.311,1.125-1.366,1.751-.358,3.263.949,4.253,2.241,1.864,2.345,2.433,5.351,3.453,8.1,1.809,4.931,3.221,9.993,4.744,15.016a84.941,84.941,0,0,1,2.494,9.32,2.929,2.929,0,0,1-.59-.622c-4.092-6.681-7.974-13.492-12.116-20.142a63.751,63.751,0,0,1-2.963-6.4C208.978,162.042,208.367,159.8,209.341,157.828Z" transform="translate(-148.471 -105.031)" fill="none" stroke="#000" stroke-miterlimit="10" stroke-width="0.1"/>
    <path id="Path_885" data-name="Path 885" d="M209.341,157.828c.3-.489.437-1.311,1.125-1.366,1.751-.358,3.263.949,4.253,2.241,1.864,2.345,2.433,5.351,3.453,8.1,1.809,4.931,3.221,9.993,4.744,15.016a84.941,84.941,0,0,1,2.494,9.32,2.929,2.929,0,0,1-.59-.622c-4.092-6.681-7.974-13.492-12.116-20.142a63.751,63.751,0,0,1-2.963-6.4C208.978,162.042,208.367,159.8,209.341,157.828Z" transform="translate(-148.471 -105.031)" fill="#c0c5ce"/>
    <circle id="Ellipse_96" data-name="Ellipse 96" cx="5.927" cy="5.927" r="5.927" transform="translate(62.747 18.915)" fill="#c0c5ce"/>
    <circle id="Ellipse_97" data-name="Ellipse 97" cx="5.939" cy="5.939" r="5.939" transform="translate(6.383 15.755)" fill="#c0c5ce"/>
  </g>
</svg>
